<?xml version="1.0" standalone="no"?>
<!DOCTYPE svg PUBLIC "-//W3C//DTD SVG 1.1//EN" "http://www.w3.org/Graphics/SVG/1.1/DTD/svg11.dtd" >
<svg xmlns="http://www.w3.org/2000/svg">
<metadata>Generated by IcoMoon</metadata>
<defs>
<font id="icomoon" horiz-adv-x="1024">
<font-face units-per-em="1024" ascent="960" descent="-64" />
<missing-glyph horiz-adv-x="1024" />
<glyph unicode="&#x20;" horiz-adv-x="512" d="" />
<glyph unicode="&#xe900;" d="M352 640h320v-384h-320z" />
<glyph unicode="&#xe901;" d="M416 384h64v-64h-64z" />
<glyph unicode="&#xe902;" d="M608 448v-128h-64v128z" />
<glyph unicode="&#xe903;" d="M544 416v-96h-64v96z" />
<glyph unicode="&#xe904;" d="M213.92 298.88c22.56-45.12 6.4-100.48-37.92-126.080-45.92-26.4-104.64-10.72-131.2 35.2-26.4 45.92-10.72 104.64 35.2 131.2 45.92 26.4 104.64 10.72 131.2-35.2 0.96-1.6 1.92-3.36 2.72-5.12z" />
<glyph unicode="&#xe905;" d="M576 32c0-35.346-28.654-64-64-64s-64 28.654-64 64c0 35.346 28.654 64 64 64s64-28.654 64-64z" />
<glyph unicode="&#xe906;" d="M128 711.36c30.56-17.6 41.12-56.8 23.36-87.36-17.6-30.56-56.8-41.12-87.36-23.36-30.56 17.6-41.12 56.8-23.36 87.36 17.6 30.56 56.8 41.12 87.36 23.36z" />
<glyph unicode="&#xe907;" d="M512 928c52.96 0 96-43.040 96-96s-43.040-96-96-96-96 43.040-96 96 43.040 96 96 96z" />
<glyph unicode="&#xe908;" d="M983.36 688c17.76-30.56 7.2-69.76-23.36-87.36-30.56-17.76-69.76-7.2-87.36 23.36-0.64 1.12-1.28 2.24-1.76 3.36-15.2 29.92-4.32 67.040 25.12 84 30.56 17.76 69.76 7.2 87.36-23.36z" />
<glyph unicode="&#xe909;" d="M810.080 298.88c0.8 1.76 1.76 3.52 2.72 5.12 26.56 45.92 85.28 61.6 131.2 35.2 45.92-26.56 61.6-85.28 35.2-131.2-26.56-45.92-85.28-61.6-131.2-35.2-44.32 25.6-60.48 80.96-37.92 126.080z" />
<glyph unicode="&#xe90a;" d="M544 832c0-17.673-14.327-32-32-32s-32 14.327-32 32c0 17.673 14.327 32 32 32s32-14.327 32-32z" />
<glyph unicode="&#xe90b;" d="M155.68 272c8.8-15.36 3.68-34.88-11.68-43.68s-34.88-3.68-43.68 11.68c-8.96 15.36-3.68 34.88 11.68 43.68 15.36 8.96 34.88 3.68 43.68-11.68z" />
<glyph unicode="&#xe90c;" d="M912 283.68c15.36-8.8 20.64-28.32 11.68-43.68-8.8-15.36-28.32-20.48-43.68-11.68s-20.48 28.32-11.68 43.68 28.32 20.64 43.68 11.68z" />
<glyph unicode="&#xe90d;" d="M560 832c0 26.464-21.536 48-48 48s-48-21.536-48-48 21.536-48 48-48 48 21.536 48 48zM496 832c0 8.832 7.184 16 16 16s16-7.168 16-16-7.184-16-16-16-16 7.168-16 16z" />
<glyph unicode="&#xe90e;" d="M104 297.6c-22.928-13.248-30.8-42.656-17.584-65.584 8.88-15.376 25.040-23.984 41.664-23.984 8.128 0 16.368 2.064 23.92 6.4 22.912 13.248 30.784 42.656 17.568 65.584-13.248 22.912-42.672 30.8-65.568 17.584zM136 242.16c-7.664-4.432-17.456-1.776-21.856 5.856-4.416 7.648-1.776 17.456 5.856 21.856 7.632 4.416 17.44 1.76 21.84-5.856 4.416-7.648 1.776-17.456-5.84-21.856z" />
<glyph unicode="&#xe90f;" d="M920 297.6c-22.912 13.2-52.336 5.312-65.568-17.584-13.232-22.928-5.344-52.336 17.568-65.584h0.016c7.536-4.336 15.776-6.4 23.904-6.4 16.608 0 32.784 8.608 41.664 23.984 13.232 22.928 5.344 52.32-17.584 65.584zM909.872 248.016c-4.4-7.648-14.224-10.288-21.84-5.856-7.648 4.4-10.272 14.224-5.856 21.856 4.4 7.648 14.208 10.304 21.84 5.856 7.632-4.4 10.272-14.208 5.856-21.856z" />
<glyph unicode="&#xe910;" d="M952.016 353.008c-25.904 14.96-56.064 18.976-84.992 11.184-25.872-6.928-47.872-22.56-62.96-44.336l-116.064 58.048v140.208l177.312 88.672c10.624-13.568 25.040-23.504 41.984-28.048 6.896-1.856 13.888-2.768 20.832-2.768 13.856 0 27.536 3.648 39.872 10.752 18.512 10.688 31.744 27.936 37.28 48.576s2.688 42.208-8 60.704-27.936 31.728-48.576 37.264c-20.624 5.584-42.192 2.688-60.704-7.984-18.512-10.688-31.744-27.936-37.28-48.576-3.696-13.776-3.328-27.888 0.288-41.296l-163.008-81.52v102.112h-160v65.28c54.192 7.808 96 54.416 96 110.72 0 61.744-50.24 112-112 112s-112-50.256-112-112c0-56.304 41.808-102.912 96-110.72v-65.28h-160v-102.096l-163.008 81.504c3.616 13.408 3.984 27.52 0.288 41.296-5.536 20.64-18.768 37.888-37.28 48.576-18.512 10.672-40.080 13.568-60.704 7.984-20.64-5.536-37.888-18.768-48.576-37.264s-13.536-40.064-8-60.704 18.768-37.888 37.28-48.576c12.336-7.104 26-10.752 39.872-10.752 6.96 0 13.952 0.912 20.832 2.768 16.944 4.544 31.36 14.48 41.968 28.048l177.328-88.656v-140.208l-116.080-58.032c-15.072 21.776-37.088 37.408-62.96 44.336-28.896 7.76-59.072 3.776-84.992-11.184-53.472-30.896-71.872-99.52-41.008-153.008 20.72-35.888 58.432-55.984 97.184-55.984 18.992 0 38.224 4.832 55.808 14.992 46.768 27.008 66.704 82.896 50.32 132.256l101.728 50.832v-102.128h160v-129.616c-36.464-7.44-64-39.744-64-78.384 0-44.112 35.888-80 80-80s80 35.888 80 80c0 38.624-27.536 70.944-64 78.384v129.616h160v102.128l101.696-50.848c-16.384-49.376 3.552-105.248 50.32-132.256 17.6-10.16 36.832-14.992 55.808-14.992 38.736 0 76.464 20.096 97.184 55.984 30.88 53.488 12.48 122.112-40.992 152.992zM881.632 668.416c3.328 12.368 11.264 22.736 22.368 29.136 7.536 4.352 15.776 6.416 23.92 6.416 16.608 0 32.768-8.608 41.648-23.984 6.4-11.104 8.112-24.032 4.8-36.416-3.328-12.368-11.264-22.736-22.368-29.136-22.912-13.248-52.336-5.36-65.568 17.568-6.416 11.104-8.112 24.032-4.8 36.416zM432 832c0 44.112 35.888 80 80 80s80-35.888 80-80-35.888-80-80-80-80 35.888-80 80zM137.568 632c-13.232-22.928-42.656-30.816-65.568-17.568-11.104 6.4-19.040 16.768-22.368 29.136-3.312 12.384-1.616 25.312 4.8 36.416 8.88 15.376 25.040 23.984 41.648 23.984 8.144 0 16.384-2.064 23.92-6.416 11.104-6.4 19.040-16.768 22.368-29.136 3.312-12.384 1.616-25.312-4.8-36.416zM167.984 186.736c-38.224-22.048-87.232-8.928-109.28 29.28s-8.912 87.216 29.28 109.28c12.336 7.12 26 10.768 39.872 10.768 6.96 0 13.952-0.928 20.832-2.768 20.64-5.536 37.888-18.768 48.576-37.28 22.064-38.208 8.912-87.216-29.28-109.28zM560 32c0-26.464-21.536-48-48-48s-48 21.536-48 48 21.536 48 48 48 48-21.536 48-48zM656 272h-288v352h288zM965.296 216.016c-22.032-38.224-71.088-51.344-109.28-29.28s-51.328 71.072-29.28 109.28c10.688 18.512 27.936 31.744 48.576 37.28 20.624 5.52 42.192 2.704 60.704-8 38.192-22.064 51.328-71.072 29.28-109.28z" />
<glyph unicode="&#xe911;" d="M624 464h-96v-32h-64v-32h-64v-96h224zM432 368h32v-32h-32zM496 336v64h32v-64zM592 336h-32v96h32z" />
<glyph unicode="&#xe912;" d="M400 592h32v-32h-32z" />
<glyph unicode="&#xe913;" d="M464 592h160v-32h-160z" />
<glyph unicode="&#xe914;" d="M400 528h224v-32h-224z" />
<glyph unicode="&#xe915;" d="M676.6-9.032h-329.196c-12.416 0-22.484-10.068-22.484-22.484s10.068-22.484 22.484-22.484h329.196c12.416 0 22.484 10.068 22.484 22.484-0.004 12.416-10.068 22.484-22.484 22.484z" />
<glyph unicode="&#xe916;" d="M921.628 790.028h-353.168c2.144-6.16 3.364-12.748 3.364-19.636 0-33.040-26.784-59.828-59.828-59.828-33.040 0-59.828 26.784-59.828 59.828 0 6.888 1.224 13.476 3.364 19.636h-353.16c-26.4 0-48-21.6-48-48v-600.020c0-26.4 21.6-48 48-48h819.256c26.4 0 48 21.6 48 48v600.016c0.004 26.404-21.6 48.004-48 48.004z" />
<glyph unicode="&#xe917;" d="M54.368 222.008v-80.004c0-26.4 21.6-48 48-48h819.256c26.4 0 48 21.6 48 48v80.004z" />
<glyph unicode="&#xe918;" d="M921.628 750.024h-353.432c-8.34-23-30.316-39.46-56.196-39.46s-47.856 16.464-56.196 39.46h-353.432c-4.4 0-8-3.6-8-8v-520.016h835.256v520.016c0 4.4-3.6 8-8 8z" />
<glyph unicode="&#xe919;" d="M421.112 94.004h181.776v-103.040h-181.776z" />
<glyph unicode="&#xe91a;" d="M512 181.684c-13.076 0-23.676-10.6-23.676-23.676s10.6-23.676 23.676-23.676 23.676 10.6 23.676 23.676c0 13.076-10.6 23.676-23.676 23.676z" />
<glyph unicode="&#xe91b;" d="M94.372 266.976h835.256v-44.964h-835.256z" />
<glyph unicode="&#xe91c;" d="M94.372 266.976h94.528v-44.964h-94.528z" />
<glyph unicode="&#xe91d;" d="M643.088 594.54c-11.048 0-20 8.956-20 20s8.952 20 20 20c22.492 0 40.788 18.296 40.788 40.788v16.88c0 26.756 11.652 52.088 31.964 69.508l12.32 10.556-12.316 10.552c-20.316 17.42-31.968 42.756-31.968 69.512v16.88c0 22.492-18.296 40.788-40.788 40.788-11.048 0-20 8.956-20 20s8.952 20 20 20c44.548 0 80.788-36.24 80.788-80.788v-16.88c0-15.068 6.564-29.332 18.004-39.14l14.372-12.316c8.364-7.172 13.156-17.596 13.156-28.608s-4.792-21.436-13.152-28.604l-14.38-12.324c-11.436-9.804-18-24.072-18-39.136v-16.88c0.004-44.548-36.24-80.788-80.788-80.788z" />
<glyph unicode="&#xe91e;" d="M380.908 594.54c-44.548 0-80.788 36.24-80.788 80.788v16.88c0 15.068-6.564 29.332-18 39.14l-14.372 12.32c-8.364 7.172-13.16 17.596-13.16 28.608s4.796 21.436 13.156 28.604l14.372 12.32c11.44 9.808 18 24.072 18 39.14v16.88c0.004 44.54 36.244 80.78 80.792 80.78 11.044 0 20-8.956 20-20s-8.956-20-20-20c-22.492 0-40.788-18.296-40.788-40.788v-16.88c0-26.76-11.652-52.092-31.972-69.508l-12.316-10.556 12.316-10.556c20.32-17.416 31.972-42.752 31.972-69.508v-16.88c0-22.492 18.296-40.788 40.788-40.788 11.044 0 20-8.956 20-20s-8.956-19.996-20-19.996z" />
<glyph unicode="&#xe91f;" d="M634.784 793.424h-15.712c-2.3 0-4.32 1.54-4.9 3.764-2.46 9.408-6.184 18.296-10.98 26.488-1.164 1.984-0.828 4.504 0.8 6.132l11.12 11.116c1.984 1.984 1.984 5.204 0 7.188l-25.384 25.384c-1.984 1.984-5.204 1.984-7.188 0l-11.12-11.116c-1.628-1.628-4.148-1.964-6.132-0.8-8.192 4.796-17.084 8.52-26.488 10.98-2.224 0.58-3.764 2.6-3.764 4.9v15.712c0 2.808-2.276 5.084-5.084 5.084h-35.896c-2.808 0-5.084-2.276-5.084-5.084v-15.712c0-2.3-1.54-4.32-3.764-4.9-9.408-2.46-18.296-6.184-26.488-10.98-1.984-1.164-4.504-0.828-6.132 0.8l-11.116 11.116c-1.984 1.984-5.204 1.984-7.188 0l-25.384-25.384c-1.984-1.984-1.984-5.204 0-7.188l11.116-11.116c1.628-1.628 1.964-4.148 0.8-6.132-4.796-8.192-8.52-17.084-10.98-26.488-0.58-2.224-2.604-3.764-4.9-3.764h-15.712c-2.808 0-5.084-2.276-5.084-5.084v-35.896c0-2.808 2.276-5.084 5.084-5.084h15.712c2.3 0 4.32-1.54 4.9-3.764 2.46-9.408 6.184-18.296 10.98-26.488 1.164-1.984 0.828-4.504-0.8-6.132l-11.116-11.116c-1.984-1.984-1.984-5.204 0-7.188l25.384-25.384c1.984-1.984 5.204-1.984 7.188 0l11.116 11.116c1.628 1.628 4.148 1.964 6.132 0.8 8.192-4.796 17.084-8.52 26.488-10.98 2.224-0.58 3.764-2.604 3.764-4.9v-15.712c0-2.808 2.276-5.084 5.084-5.084h35.896c2.808 0 5.084 2.276 5.084 5.084v15.708c0 2.3 1.54 4.32 3.764 4.9 9.408 2.46 18.296 6.184 26.488 10.98 1.984 1.164 4.504 0.828 6.132-0.8l11.12-11.116c1.984-1.984 5.204-1.984 7.188 0l25.384 25.384c1.984 1.984 1.984 5.204 0 7.188l-11.12 11.116c-1.628 1.628-1.964 4.148-0.8 6.132 4.796 8.192 8.52 17.084 10.98 26.488 0.58 2.224 2.6 3.764 4.9 3.764h15.712c2.808 0 5.084 2.276 5.084 5.084v35.896c0 2.812-2.276 5.088-5.084 5.088zM512 710.564c-33.040 0-59.828 26.784-59.828 59.828s26.788 59.824 59.828 59.824 59.828-26.784 59.828-59.828-26.788-59.824-59.828-59.824z" />
<glyph unicode="&#xe920;" d="M757.328 32.468c-9.892 1.84-17.684 9.48-19.564 19.168-0.096 0.488-0.772 0.488-0.868 0-1.88-9.688-9.676-17.324-19.568-19.168-0.496-0.092-0.496-0.756 0-0.852 9.892-1.844 17.684-9.48 19.568-19.168 0.096-0.488 0.772-0.488 0.868 0 1.88 9.688 9.676 17.324 19.564 19.168 0.496 0.092 0.496 0.76 0 0.852z" />
<glyph unicode="&#xe921;" d="M884.776 873.796c-16.596-3.092-29.676-15.904-32.832-32.164-0.16-0.816-1.3-0.816-1.456 0-3.156 16.26-16.236 29.072-32.832 32.164-0.832 0.156-0.832 1.272 0 1.428 16.596 3.092 29.676 15.904 32.832 32.164 0.16 0.816 1.3 0.816 1.456 0 3.156-16.26 16.236-29.072 32.832-32.164 0.832-0.156 0.832-1.272 0-1.428z" />
<glyph unicode="&#xe922;" d="M790.536 946.492c0-7.46-6.048-13.508-13.508-13.508s-13.508 6.048-13.508 13.508c0 7.46 6.048 13.508 13.508 13.508s13.508-6.048 13.508-13.508z" />
<glyph unicode="&#xe923;" d="M174.92 44.968h-7.296v7.296c0 5.464-4.428 9.892-9.892 9.892s-9.892-4.428-9.892-9.892v-7.296h-7.296c-5.464 0-9.892-4.428-9.892-9.892s4.428-9.892 9.892-9.892h7.296v-7.296c0-5.464 4.428-9.892 9.892-9.892s9.892 4.428 9.892 9.892v7.296h7.296c5.464 0 9.892 4.428 9.892 9.892s-4.432 9.892-9.892 9.892z" />
<glyph unicode="&#xe924;" d="M252.072-30.508c0-7.46-6.048-13.508-13.508-13.508s-13.508 6.048-13.508 13.508c0 7.46 6.048 13.508 13.508 13.508s13.508-6.048 13.508-13.508z" />
<glyph unicode="&#xe925;" d="M676.596-64h-329.192c-17.912 0-32.484 14.572-32.484 32.484s14.572 32.484 32.484 32.484h329.196c17.912 0 32.484-14.572 32.484-32.484s-14.576-32.484-32.488-32.484zM347.404-19.032c-6.884 0-12.484-5.6-12.484-12.484s5.6-12.484 12.484-12.484h329.196c6.884 0 12.484 5.6 12.484 12.484s-5.6 12.484-12.484 12.484z" />
<glyph unicode="&#xe926;" d="M921.628 84.004h-819.256c-31.984 0-58 26.020-58 58v600.020c0 31.984 26.020 58 58 58h152.724c5.524 0 10-4.476 10-10s-4.476-10-10-10h-152.724c-20.956 0-38-17.048-38-38v-600.020c0-20.956 17.048-38 38-38h819.256c20.952 0 38 17.048 38 38v600.020c0 20.956-17.048 38-38 38h-152.72c-5.524 0-10 4.476-10 10s4.476 10 10 10h152.72c31.98 0 58-26.020 58-58v-600.020c0-31.98-26.020-58-58-58z" />
<glyph unicode="&#xe927;" d="M837.188 523.364h-520.188c-5.524 0-10 4.476-10 10s4.476 10 10 10h520.188c5.524 0 10-4.476 10-10s-4.476-10-10-10z" />
<glyph unicode="&#xe928;" d="M277.332 523.364h-90.516c-5.524 0-10 4.476-10 10s4.476 10 10 10h90.516c5.524 0 10-4.476 10-10s-4.476-10-10-10z" />
<glyph unicode="&#xe929;" d="M837.188 475.84h-321.188c-5.524 0-10 4.476-10 10s4.476 10 10 10h321.188c5.524 0 10-4.476 10-10s-4.476-10-10-10z" />
<glyph unicode="&#xe92a;" d="M474 475.84h-287.184c-5.524 0-10 4.476-10 10s4.476 10 10 10h287.184c5.524 0 10-4.476 10-10s-4.476-10-10-10z" />
<glyph unicode="&#xe92b;" d="M837.188 428.316h-120.188c-5.524 0-10 4.476-10 10s4.476 10 10 10h120.188c5.524 0 10-4.476 10-10s-4.476-10-10-10z" />
<glyph unicode="&#xe92c;" d="M676.592 428.316h-489.776c-5.524 0-10 4.476-10 10s4.476 10 10 10h489.78c5.524 0 10-4.476 10-10s-4.48-10-10.004-10z" />
<glyph unicode="&#xe92d;" d="M837.188 380.792h-445.056c-5.524 0-10 4.476-10 10s4.476 10 10 10h445.056c5.524 0 10-4.476 10-10s-4.476-10-10-10z" />
<glyph unicode="&#xe92e;" d="M350 380.792h-163.184c-5.524 0-10 4.476-10 10s4.476 10 10 10h163.184c5.524 0 10-4.476 10-10s-4.476-10-10-10z" />
<glyph unicode="&#xe92f;" d="M837.188 333.268h-321.188c-5.524 0-10 4.476-10 10s4.476 10 10 10h321.188c5.524 0 10-4.476 10-10s-4.476-10-10-10z" />
<glyph unicode="&#xe930;" d="M474 333.268h-287.184c-5.524 0-10 4.476-10 10s4.476 10 10 10h287.184c5.524 0 10-4.476 10-10s-4.476-10-10-10z" />
<glyph unicode="&#xe931;" d="M967.332 212.008h-910.080c-5.524 0-10 4.476-10 10s4.476 10 10 10h910.080c5.524 0 10-4.476 10-10s-4.476-10-10-10z" />
<glyph unicode="&#xe932;" d="M929.628 215.168c-5.524 0-10 4.476-10 10v514.856h-153.508c-5.524 0-10 4.476-10 10s4.476 10 10 10h155.508c9.924 0 18-8.076 18-18v-516.856c0-5.52-4.476-10-10-10z" />
<glyph unicode="&#xe933;" d="M94.372 215.332c-5.524 0-10 4.476-10 10v516.692c0 9.924 8.076 18 18 18h155.512c5.524 0 10-4.476 10-10s-4.476-10-10-10h-153.512v-514.692c0-5.52-4.476-10-10-10z" />
<glyph unicode="&#xe934;" d="M602.888-17.564c-5.524 0-10 4.476-10 10v99.564c0 5.524 4.476 10 10 10s10-4.476 10-10v-99.564c0-5.524-4.476-10-10-10z" />
<glyph unicode="&#xe935;" d="M421.112-15.832c-5.524 0-10 4.476-10 10v96.956c0 5.524 4.476 10 10 10s10-4.476 10-10v-96.956c0-5.524-4.476-10-10-10z" />
<glyph unicode="&#xe936;" d="M512 124.332c-18.568 0-33.676 15.108-33.676 33.676 0 18.572 15.108 33.676 33.676 33.676 18.572 0 33.676-15.108 33.676-33.676 0-18.572-15.104-33.676-33.676-33.676zM512 171.684c-7.54 0-13.676-6.136-13.676-13.676s6.136-13.676 13.676-13.676 13.676 6.136 13.676 13.676-6.136 13.676-13.676 13.676z" />
<glyph unicode="&#xe937;" d="M927.916 256.976h-830.792c-5.524 0-10 4.476-10 10s4.476 10 10 10h830.796c5.524 0 10-4.476 10-10s-4.48-10-10.004-10z" />
<glyph unicode="&#xe938;" d="M188.9 215.332c-5.524 0-10 4.476-10 10v38.836c0 5.524 4.476 10 10 10s10-4.476 10-10v-38.836c0-5.52-4.48-10-10-10z" />
<glyph unicode="&#xe939;" d="M643.088 584.54c-16.544 0-30 13.456-30 30s13.456 30 30 30c16.976 0 30.788 13.812 30.788 30.788v16.88c0 29.676 12.92 57.776 35.456 77.1l3.456 2.964-3.452 2.96c-22.536 19.328-35.46 47.428-35.46 77.104v16.88c0 16.976-13.812 30.788-30.788 30.788-16.544 0-30 13.456-30 30s13.456 30 30 30c50.064 0 90.788-40.728 90.788-90.788v-16.88c0-12.144 5.288-23.644 14.512-31.548l14.372-12.312c10.584-9.076 16.648-22.268 16.648-36.204s-6.068-27.128-16.644-36.196l-14.38-12.324c-9.22-7.904-14.508-19.4-14.508-31.544v-16.88c0.004-50.064-40.724-90.788-90.788-90.788zM643.088 940c-5.516 0-10-4.488-10-10s4.484-10 10-10c28.004 0 50.788-22.784 50.788-50.788v-16.88c0-23.832 10.38-46.4 28.476-61.92l12.316-10.552c2.216-1.9 3.492-4.672 3.492-7.592s-1.276-5.692-3.492-7.592l-12.32-10.556c-18.092-15.512-28.472-38.084-28.472-61.916v-16.88c0-28.004-22.784-50.788-50.788-50.788-5.516 0-10-4.488-10-10s4.484-10 10-10c39.036 0 70.788 31.756 70.788 70.788v16.88c0 17.988 7.832 35.020 21.492 46.728l14.38 12.324c6.136 5.26 9.66 12.92 9.66 21.012s-3.524 15.752-9.664 21.016l-14.372 12.312c-13.66 11.712-21.496 28.748-21.496 46.736v16.88c0.004 39.032-31.752 70.788-70.788 70.788z" />
<glyph unicode="&#xe93a;" d="M380.908 584.54c-50.060 0-90.788 40.728-90.788 90.788v16.88c0 12.144-5.288 23.64-14.508 31.548l-14.372 12.32c-10.584 9.076-16.652 22.268-16.652 36.2s6.068 27.124 16.648 36.196l14.376 12.32c9.22 7.908 14.508 19.404 14.508 31.548v16.88c0 50.052 40.728 90.78 90.788 90.78 16.544 0 30-13.456 30-30s-13.456-30-30-30c-16.976 0-30.788-13.812-30.788-30.788v-16.88c0-29.68-12.924-57.784-35.464-77.1l-3.456-2.964 3.456-2.964c22.536-19.316 35.464-47.42 35.464-77.1v-16.88c0-16.976 13.812-30.788 30.788-30.788 16.544 0 30-13.456 30-30s-13.456-29.996-30-29.996zM380.908 940c-39.032 0-70.788-31.756-70.788-70.788v-16.88c0-17.988-7.832-35.020-21.496-46.732l-14.372-12.32c-6.14-5.268-9.664-12.924-9.664-21.012s3.524-15.748 9.668-21.016l14.368-12.32c13.66-11.708 21.496-28.744 21.496-46.732v-16.88c0-39.032 31.756-70.788 70.788-70.788 5.512 0 10 4.488 10 10s-4.488 10-10 10c-28.004 0-50.788 22.784-50.788 50.788v16.88c0 23.836-10.38 46.404-28.48 61.916l-12.316 10.556c-2.216 1.9-3.492 4.672-3.492 7.592s1.276 5.692 3.492 7.592l12.316 10.556c18.096 15.512 28.48 38.084 28.48 61.916v16.88c0 28.008 22.784 50.792 50.788 50.792 5.512 0 10 4.488 10 10s-4.488 10-10 10z" />
<glyph unicode="&#xe93b;" d="M529.948 632.524h-35.9c-8.316 0-15.084 6.764-15.084 15.084v11.976c-7.604 2.264-14.964 5.316-21.96 9.104l-8.476-8.472c-5.688-5.7-15.636-5.7-21.332 0l-25.38 25.38c-5.88 5.88-5.88 15.452 0 21.332l8.472 8.476c-3.788 6.996-6.836 14.352-9.104 21.96h-11.976c-8.316 0-15.084 6.764-15.084 15.084v35.9c0 8.316 6.768 15.084 15.084 15.084h11.976c2.264 7.612 5.316 14.972 9.104 21.96l-8.472 8.472c-5.88 5.88-5.88 15.448-0.004 21.332l25.388 25.388c5.88 5.88 15.448 5.88 21.328 0l8.472-8.472c6.992 3.788 14.352 6.836 21.96 9.104v11.976c0 8.316 6.764 15.084 15.084 15.084h35.9c8.316 0 15.084-6.768 15.084-15.084v-11.992c7.608-2.264 14.968-5.316 21.96-9.104l8.472 8.472c5.876 5.884 15.444 5.884 21.328 0l25.384-25.384c2.852-2.844 4.42-6.636 4.42-10.668s-1.576-7.82-4.428-10.668l-8.464-8.468c3.788-6.996 6.844-14.352 9.104-21.96h11.972c8.32 0 15.084-6.764 15.084-15.084v-35.9c0-8.316-6.764-15.084-15.084-15.084h-11.972c-2.26-7.6-5.312-14.96-9.104-21.96l8.472-8.476c2.848-2.84 4.42-6.632 4.42-10.664s-1.576-7.824-4.428-10.672l-25.376-25.376c-5.688-5.7-15.636-5.7-21.332 0l-8.468 8.472c-6.996-3.788-14.356-6.84-21.96-9.104v-11.976c0.004-8.304-6.764-15.072-15.080-15.072zM498.968 652.524h26.064v10.796c0 6.848 4.616 12.844 11.232 14.576 8.396 2.192 16.456 5.536 23.968 9.936 5.9 3.456 13.408 2.488 18.252-2.352l7.644-7.644 18.428 18.428-7.64 7.644c-4.844 4.848-5.812 12.348-2.364 18.248 4.408 7.524 7.752 15.584 9.936 23.968 1.732 6.62 7.728 11.24 14.58 11.24h10.796v26.064h-10.796c-6.852 0-12.844 4.62-14.576 11.232-2.192 8.388-5.536 16.452-9.936 23.968-3.452 5.908-2.48 13.412 2.356 18.252l7.644 7.648-18.428 18.428-7.64-7.64c-4.852-4.844-12.352-5.816-18.256-2.356-7.504 4.396-15.572 7.74-23.964 9.936-6.616 1.732-11.236 7.724-11.236 14.576v10.796h-26.064v-10.796c0-6.852-4.62-12.844-11.236-14.576-8.396-2.196-16.46-5.54-23.968-9.936-5.9-3.456-13.408-2.484-18.248 2.348l-7.648 7.652-18.428-18.428 7.64-7.64c4.848-4.848 5.816-12.356 2.356-18.26-4.396-7.504-7.736-15.568-9.932-23.964-1.724-6.612-7.72-11.236-14.576-11.236h-10.796v-26.064h10.796c6.856 0 12.852-4.624 14.576-11.244 2.196-8.388 5.536-16.452 9.932-23.96 3.46-5.896 2.492-13.408-2.356-18.252l-7.64-7.644 18.428-18.428 7.64 7.64c4.848 4.848 12.356 5.816 18.252 2.36 7.516-4.4 15.58-7.744 23.968-9.936 6.616-1.732 11.236-7.728 11.236-14.58v-10.8zM634.78 783.42h0.040zM512 700.564c-38.5 0-69.828 31.324-69.828 69.828s31.324 69.828 69.828 69.828 69.828-31.324 69.828-69.828-31.324-69.828-69.828-69.828zM512 820.22c-27.476 0-49.828-22.352-49.828-49.828s22.352-49.828 49.828-49.828 49.828 22.352 49.828 49.828-22.352 49.828-49.828 49.828z" />
<glyph unicode="&#xe93c;" d="M448 720c0-114.875-93.125-208-208-208s-208 93.125-208 208c0 114.875 93.125 208 208 208s208-93.125 208-208z" />
<glyph unicode="&#xe93d;" d="M919.054 510.741c-0.024-53.235-43.173-96.385-96.406-96.408h-0.002c-5.122 0.001-10.155 0.379-15.074 1.106l0.558-0.068v-2.076c0-0.017 0-0.036 0-0.056 0-54.827-44.359-99.293-99.145-99.466h-0.017c-6.504 0.050-12.828 0.677-18.966 1.833l0.659-0.103c-20.077-18.858-47.178-30.444-76.984-30.444-0.149 0-0.299 0-0.448 0.001h0.023c-0.011 0-0.024 0-0.038 0-45.719 0-85.199 26.713-103.683 65.383l-0.298 0.692c-10.121-30.157-38.125-51.498-71.113-51.498-28.211 0-52.777 15.608-65.534 38.659l-0.195 0.384c-1.902-0.229-4.104-0.36-6.336-0.36-0.443 0-0.885 0.005-1.326 0.015l0.065-0.001c-0.021 0-0.045 0-0.069 0-41.376 0-74.918 33.542-74.918 74.918 0 0.024 0 0.049 0 0.073v-0.004c-0.011 0.461-0.017 1.003-0.017 1.547 0 2.496 0.132 4.962 0.389 7.39l-0.026-0.302c-0.866-0.229-1.86-0.36-2.884-0.36-0.202 0-0.403 0.005-0.603 0.015l0.028-0.001c-0.010 0-0.021 0-0.033 0-37.416 0-70.611 18.075-91.329 45.969l-0.216 0.305c-39.918 0.149-72.22 32.544-72.22 72.482 0 0.029 0 0.059 0 0.088v-0.005c0.017 9.546 1.797 18.67 5.032 27.073l-0.175-0.518c-14.128 15.112-22.803 35.477-22.803 57.867 0 31.962 17.678 59.796 43.789 74.257l0.435 0.221c1.065 48.766 36.307 88.997 82.672 97.748l0.632 0.099c-1.538 4.56-2.426 9.813-2.426 15.272 0 0.221 0.001 0.441 0.004 0.661v-0.033c0.079 33.939 27.57 61.431 61.502 61.509h0.007c0.178 0.002 0.389 0.003 0.6 0.003 21.571 0 40.488-11.365 51.089-28.433l0.148-0.256c18.061 42.921 59.768 72.508 108.386 72.508 40.064 0 75.435-20.092 96.587-50.75l0.256-0.393c16.907 11.274 37.691 17.99 60.043 17.99 0.151 0 0.301 0 0.451-0.001h-0.023c0.084 0 0.183 0 0.282 0 42.605 0 79.61-23.978 98.256-59.176l0.292-0.603c8.011 3.058 17.277 4.829 26.956 4.829v0c44.072-0.024 79.793-35.745 79.817-79.814v-0.002c-0.003-4.275-0.381-8.46-1.101-12.526l0.063 0.432c13.729-12.487 22.504-30.213 23.148-49.994l0.003-0.113c29.027-9.595 49.636-36.401 49.816-68.047v-0.022c-0.065-11.576-2.733-22.513-7.447-32.277l0.196 0.45c24.146-17.462 39.674-45.548 39.674-77.261 0-0.144 0-0.289-0.001-0.433v0.022z" />
<glyph unicode="&#xe93e;" d="M893.924 445.924c1.056 5.239 1.661 11.261 1.661 17.424 0 0.053 0 0.105 0 0.158v-0.008c0 0.091 0 0.2 0 0.308 0 31.812-15.603 59.979-39.573 77.268l-0.281 0.193c4.58 9.259 7.281 20.152 7.334 31.671v0.018c-0.174 31.673-20.785 58.486-49.308 67.936l-0.508 0.146c-0.607 19.89-9.375 37.62-23.051 50.041l-0.058 0.052c0.617 3.545 0.97 7.627 0.97 11.791 0 0.136 0 0.271-0.001 0.407v-0.021c0.001 0.136 0.001 0.296 0.001 0.456 0 43.845-35.543 79.388-79.388 79.388-9.8 0-19.185-1.776-27.851-5.023l0.548 0.18c-18.951 35.803-55.966 59.78-98.581 59.78-0.078 0-0.156 0-0.233 0h0.012c-0.132 0.001-0.288 0.001-0.445 0.001-22.347 0-43.125-6.716-60.426-18.241l0.4 0.251c-21.446 31.005-56.814 51.059-96.866 51.059-48.644 0-90.38-29.582-108.198-71.737l-0.289-0.771c-10.703 17.297-29.57 28.648-51.088 28.648-0.234 0-0.468-0.001-0.701-0.004h0.036c-0.036 0-0.078 0-0.12 0-14.403 0-27.635-5.008-38.053-13.377l0.119 0.092c0.614 33.564 27.934 60.545 61.572 60.61h0.006c0.15 0.001 0.327 0.002 0.504 0.002 21.565 0 40.48-11.345 51.102-28.392l0.148-0.254c18.082 42.926 59.802 72.512 108.434 72.512 40.1 0 75.501-20.116 96.663-50.808l0.257-0.394c16.825 11.273 37.528 17.991 59.8 17.991 0.236 0 0.472-0.001 0.708-0.002h-0.036c0.066 0 0.143 0 0.221 0 42.615 0 79.629-23.977 98.289-59.177l0.292-0.603c7.924 3.067 17.093 4.844 26.678 4.844 0.108 0 0.215 0 0.323-0.001h-0.017c44.027-0.031 79.706-35.73 79.706-79.761 0-0.029 0-0.058 0-0.088v0.004c0.001-0.111 0.001-0.242 0.001-0.374 0-4.12-0.353-8.158-1.030-12.085l0.060 0.42c13.718-12.485 22.48-30.207 23.106-49.983l0.003-0.11c29.031-9.596 49.642-36.409 49.816-68.061v-0.021c-0.070-11.584-2.768-22.522-7.529-32.268l0.195 0.441c24.259-17.608 39.853-45.873 39.853-77.78 0-24.997-9.571-47.758-25.248-64.819l0.063 0.069z" />
<glyph unicode="&#xe93f;" d="M129.827 99.3h-13.838v98.318l94.166 55.711v192.138h13.838v-200.026l-94.166-55.711z" />
<glyph unicode="&#xe940;" d="M520.87 68.497h-13.838v466.086l79.139 63.059 8.621-10.821-73.922-58.908z" />
<glyph unicode="&#xe941;" d="M368.626 200.552h-13.838v323.127l-86.403 49.027 6.836 12.039 93.405-53.013z" />
<glyph unicode="&#xe942;" d="M908.039 93.059h-13.838v72.856l-94.139 55.656v176.253h13.838v-168.351l94.139-55.67z" />
<glyph unicode="&#xe943;" d="M669.295 175.588h-13.838v272.052l50.992 41.5 8.732-10.724-45.886-37.362z" />
<glyph unicode="&#xe944;" d="M946.563 47.616c0-25.113-20.358-45.471-45.471-45.471s-45.471 20.358-45.471 45.471c0 25.113 20.358 45.471 45.471 45.471s45.471-20.358 45.471-45.471z" />
<glyph unicode="&#xe945;" d="M901.092-4.774c-0.016 0-0.036 0-0.055 0-28.934 0-52.39 23.456-52.39 52.39s23.456 52.39 52.39 52.39c28.934 0 52.39-23.456 52.39-52.39v0c-0.031-28.902-23.437-52.327-52.329-52.39h-0.006zM901.092 86.168c-0.016 0-0.036 0-0.055 0-21.292 0-38.552-17.26-38.552-38.552s17.26-38.552 38.552-38.552c21.292 0 38.552 17.26 38.552 38.552v0c-0.016 21.269-17.234 38.511-38.492 38.566h-0.005z" />
<glyph unicode="&#xe946;" d="M707.819 130.048c0-25.113-20.358-45.471-45.471-45.471s-45.471 20.358-45.471 45.471c0 25.113 20.358 45.471 45.471 45.471s45.471-20.358 45.471-45.471z" />
<glyph unicode="&#xe947;" d="M662.348 77.644c-28.934 0-52.39 23.456-52.39 52.39s23.456 52.39 52.39 52.39c28.929 0 52.382-23.448 52.39-52.375v-0.001c-0.031-28.924-23.467-52.365-52.386-52.404h-0.004zM662.348 168.6c-21.292 0-38.552-17.26-38.552-38.552s17.26-38.552 38.552-38.552c21.292 0 38.552 17.26 38.552 38.552v0c-0.024 21.282-17.27 38.529-38.55 38.552h-0.002z" />
<glyph unicode="&#xe948;" d="M559.381 22.985c0-25.113-20.358-45.471-45.471-45.471s-45.471 20.358-45.471 45.471c0 25.113 20.358 45.471 45.471 45.471s45.471-20.358 45.471-45.471z" />
<glyph unicode="&#xe949;" d="M513.923-29.405c-28.934 0-52.39 23.456-52.39 52.39s23.456 52.39 52.39 52.39c28.934 0 52.39-23.456 52.39-52.39v0c-0.031-28.922-23.468-52.359-52.387-52.39h-0.003zM513.923 61.551c-21.292 0-38.552-17.26-38.552-38.552s17.26-38.552 38.552-38.552c21.287 0 38.544 17.253 38.552 38.538v0.001c-0.024 21.285-17.268 38.535-38.549 38.566h-0.003z" />
<glyph unicode="&#xe94a;" d="M407.123 155.053c0-25.113-20.358-45.471-45.471-45.471s-45.471 20.358-45.471 45.471c0 25.113 20.358 45.471 45.471 45.471s45.471-20.358 45.471-45.471z" />
<glyph unicode="&#xe94b;" d="M361.652 102.663c-28.934 0-52.39 23.456-52.39 52.39s23.456 52.39 52.39 52.39c28.934 0 52.39-23.456 52.39-52.39v0c-0.031-28.922-23.468-52.359-52.387-52.39h-0.003zM361.652 193.619c-21.292 0-38.552-17.26-38.552-38.552s17.26-38.552 38.552-38.552c21.287 0 38.544 17.253 38.552 38.538v0.001c-0.024 21.285-17.268 38.535-38.549 38.566h-0.003z" />
<glyph unicode="&#xe94c;" d="M168.379 53.29c0-25.113-20.358-45.471-45.471-45.471s-45.471 20.358-45.471 45.471c0 25.113 20.358 45.471 45.471 45.471s45.471-20.358 45.471-45.471z" />
<glyph unicode="&#xe94d;" d="M122.908 0.899c-28.934 0-52.39 23.456-52.39 52.39s23.456 52.39 52.39 52.39c28.934 0 52.39-23.456 52.39-52.39v0c-0.031-28.922-23.468-52.359-52.387-52.39h-0.003zM122.908 91.842c-21.292 0-38.552-17.26-38.552-38.552s17.26-38.552 38.552-38.552c21.292 0 38.552 17.26 38.552 38.552v0c-0.024 21.282-17.27 38.529-38.55 38.552h-0.002z" />
<glyph unicode="&#xe94e;" d="M400.688 712.303l-13.838 1.384c3.261 24.309 15.102 45.38 32.324 60.458l0.112 0.096c15.931 12.238 36.155 19.612 58.101 19.612 5.263 0 10.426-0.424 15.459-1.24l-0.551 0.074-1.384-13.838c-81.602 8.344-89.904-63.433-90.223-66.546z" />
<glyph unicode="&#xe94f;" d="M714.115 700.347c-32.948 67.556-93.405 56.984-95.938 56.486l-2.629 13.589c4.032 0.545 8.692 0.856 13.425 0.856 43.638 0 81.102-26.436 97.251-64.167l0.262-0.689z" />
<glyph unicode="&#xe950;" d="M804.753 584.081c-34.137 0.637-63.042 22.352-74.293 52.648l-0.182 0.559 13.132 4.331c9.242-25.785 33.47-43.898 61.93-43.898 4.731 0 9.345 0.501 13.793 1.452l-0.431-0.077 2.242-13.658c-4.857-0.846-10.46-1.339-16.175-1.356h-0.016z" />
<glyph unicode="&#xe951;" d="M396.648 598.832c-12.398 27.145-39.31 45.669-70.549 45.669-4.347 0-8.611-0.359-12.763-1.048l0.451 0.062-2.491 13.616c4.222 0.683 9.088 1.073 14.046 1.073 36.949 0 68.835-21.679 83.631-53.011l0.239-0.563z" />
<glyph unicode="&#xe952;" d="M650.544 613.085c0-18.594-15.073-33.667-33.667-33.667s-33.667 15.073-33.667 33.667c0 18.594 15.073 33.667 33.667 33.667s33.667-15.073 33.667-33.667z" />
<glyph unicode="&#xe953;" d="M616.877 572.541c-22.409 0.008-40.573 18.176-40.573 40.586 0 22.415 18.171 40.586 40.586 40.586 22.41 0 40.578-18.163 40.586-40.572v-0.001c-0.024-22.413-18.187-40.577-40.598-40.6h-0.002zM616.877 639.889c-14.767-0.008-26.735-11.981-26.735-26.749 0-14.773 11.976-26.749 26.749-26.749s26.749 11.976 26.749 26.749v0c-0.047 14.748-12.009 26.685-26.762 26.693h-0.001z" />
<glyph unicode="&#xe954;" d="M276.743 596.383c0-18.594-15.073-33.667-33.667-33.667s-33.667 15.073-33.667 33.667c0 18.594 15.073 33.667 33.667 33.667s33.667-15.073 33.667-33.667z" />
<glyph unicode="&#xe955;" d="M243.062 555.797c-22.403 0.016-40.559 18.181-40.559 40.586 0 22.415 18.171 40.586 40.586 40.586s40.586-18.171 40.586-40.586v0c-0.024-22.415-18.196-40.579-40.613-40.586h-0.001zM243.062 623.146c-14.761-0.016-26.721-11.985-26.721-26.749 0-14.773 11.976-26.749 26.749-26.749 14.768 0 26.741 11.968 26.749 26.734v0.001c-0.016 14.776-11.998 26.749-26.776 26.749v0z" />
<glyph unicode="&#xe956;" d="M770.518 505.081c0-18.594-15.073-33.667-33.667-33.667s-33.667 15.073-33.667 33.667c0 18.594 15.073 33.667 33.667 33.667s33.667-15.073 33.667-33.667z" />
<glyph unicode="&#xe957;" d="M736.851 464.495c-22.409 0.008-40.573 18.176-40.573 40.586 0 22.415 18.171 40.586 40.586 40.586s40.586-18.171 40.586-40.586v0c-0.031-22.407-18.192-40.563-40.598-40.586h-0.002zM736.851 531.843c-14.767-0.008-26.735-11.981-26.735-26.749 0-14.773 11.976-26.749 26.749-26.749 14.768 0 26.741 11.968 26.749 26.734v0.001c-0.016 14.774-11.988 26.747-26.761 26.762h-0.001z" />
<glyph unicode="&#xe958;" d="M134.227 437.622c-0.005 0-0.011 0-0.017 0-1.386 0-2.677 0.408-3.76 1.11l0.027-0.016c-33.837 21.723-55.945 59.143-55.988 101.729v0.006c0 3.821 3.098 6.919 6.919 6.919s6.919-3.098 6.919-6.919v0c0.053-37.725 19.652-70.861 49.211-89.829l0.426-0.256c1.928-1.249 3.186-3.391 3.186-5.826 0-3.821-3.098-6.919-6.919-6.919-0.006 0-0.012 0-0.018 0h0.001z" />
<glyph unicode="&#xe959;" d="M73.465 569.081c-0.001 0-0.002 0-0.002 0-2.852 0-5.301 1.725-6.36 4.189l-0.017 0.045c-0.526 1.245-0.969 2.518-1.384 3.805l-0.664 1.688c-0.269 0.71-0.425 1.53-0.425 2.387 0 3.823 3.099 6.921 6.921 6.921 2.966 0 5.496-1.865 6.481-4.487l0.016-0.048 0.678-1.937c0.346-0.982 0.692-1.979 1.093-2.947 0.343-0.792 0.542-1.715 0.542-2.685 0-3.821-3.098-6.919-6.919-6.919-0.001 0-0.002 0-0.002 0v0z" />
<glyph unicode="&#xe95a;" d="M856.175 746.371c0 0-0.001 0-0.002 0-3.768 0-6.832 3.012-6.917 6.759v0.008c-0.924 44.509-27.284 82.645-65.094 100.542l-0.691 0.294c-2.367 1.133-3.973 3.51-3.973 6.262 0 3.822 3.098 6.921 6.921 6.921 1.071 0 2.084-0.243 2.989-0.677l-0.042 0.018c43.15-20.402 72.691-63.151 73.726-112.907l0.002-0.134c0.001-0.046 0.002-0.1 0.002-0.154 0-3.768-3.012-6.833-6.761-6.917h-0.008z" />
<glyph unicode="&#xe95b;" d="M882.563 703.419c-1.565 0-3.009 0.52-4.169 1.396l0.017-0.013-1.73 1.384c-0.692 0.554-1.384 1.107-2.103 1.605-1.844 1.262-3.038 3.356-3.038 5.729 0 3.822 3.098 6.92 6.92 6.92 1.449 0 2.794-0.445 3.905-1.206l-0.024 0.015c1.052-0.706 2.020-1.481 3.003-2.269l1.384-1.107c1.688-1.276 2.768-3.279 2.768-5.535 0-3.821-3.098-6.919-6.919-6.919v0z" />
<glyph unicode="&#xe95c;" d="M613.238 278.182c-43.299 0.101-81.305 22.668-102.991 56.657l-0.295 0.494c-14.154-25.596-40.99-42.641-71.807-42.641-29.235 0-54.887 15.34-69.347 38.41l-0.2 0.342c-1.301 0-2.588 0-3.805 0-45.213 0.055-81.851 36.693-81.906 81.901v1.389c-37.099 1.071-69.833 18.866-91.061 46.077l-0.2 0.266c-42.118 2.304-75.426 36.915-75.638 79.353v0.021c0 0.028 0 0.061 0 0.095 0 8.913 1.417 17.496 4.039 25.534l-0.164-0.582c-13.588 15.903-21.856 36.706-21.856 59.441 0 33.18 17.611 62.246 43.995 78.363l0.403 0.229c3.059 47.748 36.396 86.932 80.882 98.727l0.762 0.172c-0.573 3.122-0.9 6.715-0.9 10.384 0 0.1 0 0.2 0.001 0.3v-0.015c0.022 37.791 30.662 68.418 68.456 68.418 19.93 0 37.871-8.517 50.381-22.109l0.044-0.048c21.32 39.568 62.457 66.006 109.77 66.006 40.089 0 75.744-18.981 98.469-48.447l0.215-0.29c16.696 9.788 36.767 15.568 58.189 15.568 0.151 0 0.301 0 0.452-0.001h-0.023c0.058 0 0.127 0 0.196 0 43.201 0 80.988-23.182 101.6-57.784l0.299-0.542c7.093 2.142 15.245 3.38 23.685 3.39h0.005c47.888-0.055 86.694-38.861 86.749-86.744v-0.005c0-0.011 0-0.023 0-0.036 0-3.348-0.216-6.646-0.635-9.88l0.040 0.382c12.348-12.402 20.554-28.937 22.364-47.349l0.026-0.322c29.537-11.669 50.057-39.96 50.079-73.047v-0.003c-0.039-10.646-2.124-20.795-5.882-30.088l0.194 0.544c23.338-19.074 38.118-47.861 38.118-80.099 0-57.005-46.212-103.216-103.216-103.216-2.75 0-5.474 0.108-8.17 0.319l0.357-0.022c-3.027-56.22-49.274-100.68-105.941-100.836h-0.015c-5.719 0.030-11.306 0.492-16.759 1.354l0.624-0.081c-21.043-18.594-48.865-29.945-79.337-29.945-0.086 0-0.172 0-0.257 0h0.013zM508.070 369.872l7.417-15.83c17.758-36.9 54.82-61.934 97.739-62.021h0.012c0.065 0 0.142 0 0.219 0 28.040 0 53.543 10.86 72.532 28.604l-0.061-0.056 2.532 2.352 3.39-0.595c5.116-0.982 11.024-1.569 17.060-1.619h0.043c50.986 0.157 92.257 41.526 92.257 92.533 0 0.020 0 0.039 0 0.059v-0.003 10.046l7.888-1.121c4.068-0.613 8.765-0.965 13.543-0.969h0.004c49.401 0.055 89.434 40.088 89.489 89.484v0.005c0 0.051 0 0.112 0 0.172 0 29.509-14.412 55.652-36.582 71.774l-0.255 0.177-4.663 3.335 2.422 5.203c4.105 8.45 6.536 18.372 6.614 28.853v0.027c-0.051 28.64-18.71 52.909-44.53 61.366l-0.457 0.13-4.622 1.467-0.18 4.843c-0.608 17.938-8.504 33.919-20.804 45.164l-0.049 0.044-2.768 2.532 0.623 3.75c0.594 3.293 0.937 7.085 0.941 10.956v0.004c-0.039 40.252-32.659 72.872-72.908 72.912h-0.004c-0.002 0-0.004 0-0.006 0-8.798 0-17.22-1.614-24.984-4.562l0.484 0.161-5.715-2.145-2.837 5.411c-17.81 33.585-52.551 56.071-92.544 56.071-0.060 0-0.119 0-0.179 0h0.009c-0.128 0.001-0.28 0.001-0.431 0.001-20.925 0-40.385-6.277-56.598-17.050l0.377 0.236-5.701-3.764-3.833 5.66c-20.143 29.239-53.438 48.161-91.153 48.161-45.779 0-85.046-27.878-101.752-67.582l-0.271-0.726-5.203-12.828-7.126 11.887c-9.595 15.301-26.37 25.325-45.486 25.325-0.146 0-0.291-0.001-0.436-0.002h0.022c-30.137-0.031-54.559-24.454-54.59-54.587v-0.003c-0.003-0.185-0.005-0.403-0.005-0.622 0-4.684 0.756-9.191 2.153-13.406l-0.086 0.301 2.505-7.528-7.805-1.384c-43.686-8.406-76.423-45.781-77.6-91.012l-0.003-0.124-0.083-4.027-3.556-1.91c-24.392-13.482-40.636-39.050-40.636-68.413 0-20.594 7.99-39.321 21.040-53.251l2.88-3.098-1.508-4.013c-2.769-7.167-4.373-15.461-4.373-24.129 0-0.021 0-0.042 0-0.062v0.003c-0.001-0.136-0.002-0.296-0.002-0.457 0-36.003 29.187-65.19 65.19-65.19 0.059 0 0.118 0 0.177 0h3.45l2.034-2.768c19.534-26.503 50.629-43.507 85.695-43.507 0.113 0 0.226 0 0.339 0.001h-0.018c0.224-0.022 0.484-0.035 0.747-0.035s0.523 0.013 0.78 0.037l-0.033-0.003 10.42 3.459-1.591-10.96c-0.197-1.863-0.31-4.025-0.31-6.213 0-0.545 0.007-1.088 0.021-1.63l-0.002 0.080c0.25-37.647 30.827-68.070 68.51-68.070 0.161 0 0.322 0.001 0.483 0.002h-0.025c0.246-0.005 0.536-0.008 0.827-0.008 1.723 0 3.421 0.104 5.089 0.305l-0.201-0.020 4.719 0.664 2.311-4.151c11.748-21.293 34.056-35.477 59.677-35.477 29.93 0 55.339 19.357 64.392 46.235l0.14 0.479z" />
<glyph unicode="&#xe95d;" d="M147.193 624.197c-0.492 0.005-0.971 0.050-1.436 0.132l0.052-0.008c-3.93 0.705-6.874 4.098-6.874 8.179 0 0.498 0.044 0.987 0.128 1.461l-0.007-0.050c2.701 15.77 12.373 28.841 25.668 36.123l0.264 0.132 17.021 9.188 0.415 19.373c0.11 4.361 0.609 8.538 1.463 12.584l-0.079-0.448c0.846 3.758 4.155 6.524 8.11 6.524 4.585 0 8.303-3.717 8.303-8.303 0-0.535-0.051-1.059-0.148-1.566l0.008 0.052c-0.587-2.727-0.966-5.894-1.050-9.134l-0.001-0.068-0.512-24.175c-0.061-3.073-1.783-5.731-4.302-7.119l-0.043-0.022-21.352-11.485c-9.143-5.005-15.663-13.826-17.449-24.263l-0.029-0.202c-0.69-3.934-4.073-6.888-8.149-6.905h-0.002z" />
<glyph unicode="&#xe95e;" d="M209.408 732.312c0 0 0 0 0 0-4.585 0-8.303 3.717-8.303 8.303 0 2.396 1.015 4.555 2.638 6.070l0.005 0.004c3.012 2.8 6.312 5.383 9.821 7.674l0.281 0.172c1.256 0.805 2.789 1.283 4.434 1.283 4.585 0 8.303-3.717 8.303-8.303 0-2.864-1.451-5.39-3.657-6.882l-0.029-0.019c-2.939-1.907-5.498-3.903-7.871-6.096l0.039 0.035c-1.477-1.385-3.468-2.238-5.659-2.242h-0.001z" />
<glyph unicode="&#xe95f;" d="M989.6 448c0-263.771-213.829-477.6-477.6-477.6s-477.6 213.829-477.6 477.6c0 263.771 213.829 477.6 477.6 477.6s477.6-213.829 477.6-477.6z" />
<glyph unicode="&#xe960;" d="M925.196 448c0-228.202-184.994-413.196-413.196-413.196s-413.196 184.994-413.196 413.196c0 228.202 184.994 413.196 413.196 413.196s413.196-184.994 413.196-413.196z" />
<glyph unicode="&#xe961;" d="M780.668 639h-537.336c-13.256 0-24-10.744-24-24v-333.332c0-13.256 10.744-24 24-24h212.168c-0.636-14.248-2.98-28.312-6.88-41.924-0.6-2.096-1.284-4.164-1.96-6.236-0.484-1.492-0.94-2.996-1.464-4.48-0.76-2.144-1.616-4.256-2.456-6.376-0.544-1.372-1.048-2.76-1.628-4.12-0.992-2.328-2.088-4.612-3.176-6.896-0.528-1.108-1.004-2.236-1.552-3.332-1.688-3.364-3.476-6.684-5.376-9.952l-3.508-6.024h-59.824c-7.292 0-13.584-4.016-16.98-9.912-0.016 0.028-0.036 0.052-0.052 0.080-0.38-0.656-0.712-1.344-1.016-2.044-0.024-0.056-0.060-0.108-0.084-0.168-0.436-1.040-0.756-2.132-1.008-3.252-0.064-0.276-0.12-0.556-0.168-0.836-0.208-1.148-0.356-2.32-0.356-3.532v0 0 0c0-1.356 0.136-2.684 0.4-3.964 0.524-2.56 1.544-4.94 2.96-7.032 3.532-5.232 9.52-8.672 16.308-8.672h288.648c6.788 0 12.772 3.44 16.308 8.672 1.416 2.092 2.436 4.472 2.96 7.032 0.26 1.28 0.4 2.604 0.4 3.964v0 0 0c0 1.208-0.148 2.384-0.356 3.532-0.052 0.28-0.108 0.56-0.168 0.836-0.256 1.12-0.572 2.216-1.008 3.252-0.024 0.056-0.060 0.112-0.084 0.168-0.304 0.704-0.636 1.388-1.016 2.044-0.016-0.028-0.036-0.052-0.052-0.080-3.396 5.896-9.688 9.912-16.98 9.912h-59.824l-3.508 6.024c-1.9 3.264-3.688 6.584-5.376 9.952-0.548 1.096-1.028 2.224-1.552 3.332-1.088 2.288-2.184 4.572-3.176 6.896-0.58 1.36-1.080 2.744-1.624 4.12-0.84 2.116-1.696 4.228-2.456 6.376-0.524 1.48-0.98 2.984-1.464 4.48-0.676 2.072-1.36 4.14-1.96 6.236-3.9 13.612-6.244 27.676-6.88 41.924h212.168c13.256 0 24 10.744 24 24v333.332c-0.012 13.256-10.76 24-24.012 24z" />
<glyph unicode="&#xe962;" d="M780.668 285.668h-537.336c-13.256 0-24 10.744-24 24v317.332c0 13.256 10.744 24 24 24h537.332c13.256 0 24-10.744 24-24v-317.332c0.004-13.256-10.744-24-23.996-24z" />
<glyph unicode="&#xe963;" d="M780.668 301.668h-537.336c-13.256 0-24 10.744-24 24v317.332c0 13.256 10.744 24 24 24h537.332c13.256 0 24-10.744 24-24v-317.332c0.004-13.256-10.744-24-23.996-24z" />
<glyph unicode="&#xe964;" d="M774 327h-524c-4.42 0-8 3.58-8 8v304c0 4.42 3.58 8 8 8h524c4.42 0 8-3.58 8-8v-304c0-4.42-3.58-8-8-8z" />
<glyph unicode="&#xe965;" d="M774 647h-524c-4.416 0-8-3.584-8-8v-16c0 4.416 3.584 8 8 8h524c4.42 0 8-3.584 8-8v16c0 4.42-3.58 8-8 8z" />
<glyph unicode="&#xe966;" d="M596.5 196.332h-169l3.508 6.024c14.776 25.384 23.18 53.968 24.492 83.308v0h113c1.312-29.34 9.72-57.924 24.492-83.308l3.508-6.024z" />
<glyph unicode="&#xe967;" d="M656.324 157h-288.648c-10.86 0-19.668 8.804-19.668 19.668v0c0 10.86 8.804 19.668 19.668 19.668h288.648c10.86 0 19.668-8.804 19.668-19.668v0c-0.004-10.864-8.808-19.668-19.668-19.668z" />
<glyph unicode="&#xe968;" d="M656.324 176.668h-288.648c-7.28 0-13.636 3.956-17.036 9.836-1.672-2.892-2.632-6.252-2.632-9.836 0-10.86 8.804-19.664 19.668-19.664h288.648c10.86 0 19.668 8.804 19.668 19.664 0 3.584-0.96 6.94-2.632 9.836-3.404-5.88-9.756-9.836-17.036-9.836z" />
<glyph unicode="&#xe969;" d="M431.008 202.36l-3.508-6.024h169l-3.508 6.024c-7.792 13.388-13.812 27.664-17.956 42.476h-126.076c-4.14-14.812-10.16-29.092-17.952-42.476z" />
<glyph unicode="&#xe96a;" d="M242 372.668v-37.668c0-4.42 3.584-8 8-8h524c4.42 0 8 3.58 8 8v37.668h-540z" />
<glyph unicode="&#xe96b;" d="M722.636 585.688c-0.576 0.12-1.172 0.18-1.784 0.18h-160.068c-2.34 0-4.448-0.924-6.032-2.404-0.072-0.068-0.16-0.12-0.228-0.188-1.6-1.6-2.592-3.816-2.592-6.26v-172.292c0-4.888 3.964-8.852 8.852-8.852h160.068c4.888 0 8.852 3.964 8.852 8.852v172.288c0 4.28-3.036 7.852-7.068 8.676z" />
<glyph unicode="&#xe96c;" d="M720.852 407.868h-160.068c-4.888 0-8.852 3.964-8.852 8.852v163.972c0 4.888 3.964 8.852 8.852 8.852h160.068c4.888 0 8.852-3.964 8.852-8.852v-163.972c0-4.888-3.964-8.852-8.852-8.852z" />
<glyph unicode="&#xe96d;" d="M720.852 416.192h-160.068c-4.888 0-8.852 3.964-8.852 8.852v163.972c0 4.888 3.964 8.852 8.852 8.852h160.068c4.888 0 8.852-3.964 8.852-8.852v-163.972c0-4.888-3.964-8.852-8.852-8.852z" />
<glyph unicode="&#xe96e;" d="M684.788 490.032c0 0.040 0 0.080-0.004 0.12 0 0.024 0 0.044-0.004 0.068-0.004 0.056-0.008 0.116-0.012 0.172-0.004 0.028-0.004 0.060-0.008 0.088-0.004 0.032-0.004 0.064-0.008 0.096s-0.008 0.064-0.012 0.092c-0.004 0.032-0.008 0.060-0.012 0.092-0.008 0.048-0.016 0.096-0.024 0.144-0.008 0.036-0.012 0.076-0.020 0.112-0.004 0.032-0.012 0.060-0.020 0.092-0.008 0.028-0.012 0.060-0.020 0.088-0.008 0.032-0.016 0.064-0.024 0.096-0.008 0.028-0.012 0.056-0.020 0.084-0.012 0.052-0.028 0.1-0.040 0.152-0.008 0.032-0.020 0.068-0.032 0.104-0.008 0.032-0.020 0.064-0.032 0.092-0.008 0.028-0.020 0.052-0.028 0.080-0.012 0.032-0.024 0.064-0.032 0.096-0.012 0.028-0.020 0.060-0.032 0.088s-0.020 0.056-0.032 0.084c0 0 0 0 0 0v0c-0.212 0.52-0.5 1.016-0.868 1.464l-8.908 10.864c0 0.004 0 0.004 0 0.008 0.012 0.128 0.024 0.256 0.036 0.384 0 0.008 0 0.016 0.004 0.024 0.012 0.128 0.020 0.252 0.028 0.38 0 0.012 0 0.020 0.004 0.032 0.008 0.124 0.016 0.244 0.024 0.368 0 0.020 0.004 0.036 0.004 0.056 0.008 0.116 0.012 0.232 0.020 0.348 0 0.024 0.004 0.052 0.004 0.076 0.004 0.108 0.012 0.22 0.012 0.328 0 0.048 0.004 0.092 0.004 0.14 0.004 0.088 0.004 0.18 0.008 0.272 0 0.068 0.004 0.136 0.004 0.204 0 0.072 0.004 0.144 0.004 0.216 0 0.14 0.004 0.28 0.004 0.42s0 0.28-0.004 0.42c0 0.072-0.004 0.144-0.004 0.216 0 0.068-0.004 0.136-0.004 0.204-0.004 0.092-0.004 0.18-0.008 0.272 0 0.044-0.004 0.092-0.004 0.14-0.004 0.072-0.004 0.144-0.008 0.216 0 0.004 0 0.012 0 0.016 0 0.032-0.004 0.064-0.004 0.096 0 0.024-0.004 0.052-0.004 0.076-0.004 0.116-0.012 0.232-0.020 0.348 0 0.020 0 0.040-0.004 0.056-0.008 0.124-0.016 0.244-0.024 0.368 0 0.012 0 0.020-0.004 0.032-0.008 0.128-0.020 0.252-0.028 0.38 0 0.008 0 0.016-0.004 0.024-0.012 0.128-0.024 0.256-0.036 0.384 0 0.004 0 0.004 0 0.008l0.144 0.176 8.764 10.688c0.044 0.056 0.088 0.108 0.132 0.164 0.012 0.016 0.024 0.036 0.040 0.052 0.028 0.036 0.056 0.076 0.084 0.112 0.016 0.024 0.032 0.048 0.048 0.072 0.024 0.032 0.044 0.068 0.068 0.1 0.016 0.024 0.032 0.048 0.048 0.072 0.020 0.032 0.040 0.064 0.060 0.1 0.016 0.028 0.032 0.056 0.048 0.084 0.016 0.032 0.036 0.060 0.052 0.092 0.016 0.028 0.032 0.060 0.048 0.088 0.016 0.032 0.032 0.064 0.048 0.096 0.016 0.028 0.028 0.056 0.044 0.084 0.016 0.032 0.028 0.064 0.044 0.092 0.016 0.032 0.028 0.064 0.044 0.092 0.016 0.036 0.028 0.072 0.044 0.104 0.024 0.056 0.048 0.116 0.068 0.172 0.012 0.028 0.020 0.056 0.032 0.080 0.012 0.040 0.028 0.076 0.040 0.116 0.008 0.024 0.016 0.048 0.024 0.076 0.012 0.036 0.024 0.076 0.036 0.112 0.008 0.024 0.016 0.052 0.024 0.076 0.012 0.040 0.020 0.076 0.032 0.116 0.004 0.024 0.012 0.048 0.020 0.072 0.012 0.040 0.020 0.084 0.028 0.124 0.004 0.020 0.008 0.044 0.012 0.064 0.008 0.044 0.020 0.088 0.028 0.136 0.004 0.016 0.004 0.028 0.008 0.044 0.008 0.052 0.020 0.104 0.024 0.152 0 0.004 0 0.004 0 0.008 0.036 0.244 0.056 0.488 0.060 0.736 0 0 0 0.004 0 0.004 0 0.060 0 0.116 0 0.176 0 0.004 0 0.012 0 0.016 0 0.056-0.004 0.112-0.008 0.168 0 0.008 0 0.016 0 0.024-0.004 0.060-0.008 0.116-0.012 0.172 0 0 0 0.004 0 0.004-0.048 0.56-0.176 1.116-0.392 1.648 0 0 0 0 0 0v0c-0.096 0.24-0.212 0.476-0.344 0.708l-3.828 6.632c-1.176 2.040-3.496 3.136-5.816 2.752l-13.864-2.284c-1.76 1.26-3.644 2.352-5.636 3.26l-4.952 13.14c-0.828 2.204-2.936 3.664-5.292 3.664h-7.656c-2.356 0-4.464-1.46-5.292-3.664l-4.948-13.14c-1.988-0.908-3.876-2-5.636-3.26l-13.864 2.284c-2.324 0.384-4.64-0.712-5.816-2.752l-3.828-6.632c-0.132-0.232-0.248-0.468-0.344-0.708v0c0 0 0 0 0 0-0.216-0.532-0.348-1.088-0.392-1.648 0 0 0-0.004 0-0.004-0.004-0.060-0.008-0.116-0.012-0.172 0-0.008 0-0.016 0-0.024-0.004-0.056-0.004-0.112-0.004-0.168 0-0.004 0-0.012 0-0.016 0-0.060 0-0.116 0-0.176 0 0 0-0.004 0-0.004 0.004-0.248 0.024-0.492 0.060-0.736 0-0.004 0-0.004 0-0.008 0.008-0.052 0.016-0.104 0.024-0.152 0.004-0.016 0.004-0.028 0.008-0.044 0.008-0.044 0.016-0.088 0.028-0.136 0.004-0.020 0.008-0.040 0.012-0.064 0.008-0.040 0.020-0.084 0.028-0.124 0.008-0.024 0.012-0.048 0.020-0.072 0.012-0.040 0.020-0.076 0.032-0.116 0.008-0.024 0.016-0.052 0.024-0.076 0.012-0.036 0.024-0.076 0.036-0.112 0.008-0.024 0.016-0.048 0.024-0.076 0.012-0.040 0.028-0.076 0.040-0.116 0.012-0.028 0.020-0.056 0.032-0.080 0.020-0.056 0.044-0.116 0.068-0.172 0.016-0.036 0.028-0.072 0.044-0.104 0.012-0.032 0.028-0.060 0.044-0.092s0.028-0.064 0.044-0.092c0.012-0.028 0.028-0.056 0.040-0.084 0.016-0.032 0.032-0.064 0.048-0.096 0.016-0.028 0.032-0.060 0.048-0.088 0.016-0.032 0.032-0.060 0.052-0.092 0.016-0.028 0.032-0.056 0.048-0.084 0.020-0.032 0.040-0.064 0.060-0.1 0.016-0.024 0.032-0.048 0.048-0.072 0.024-0.036 0.044-0.068 0.068-0.1 0.016-0.024 0.032-0.048 0.048-0.072 0.028-0.036 0.056-0.076 0.080-0.112 0.012-0.016 0.024-0.036 0.040-0.052 0.040-0.056 0.084-0.112 0.128-0.164l8.912-10.864c0-0.004 0-0.004 0-0.008-0.012-0.128-0.024-0.256-0.032-0.384 0-0.008 0-0.016-0.004-0.024-0.012-0.124-0.020-0.252-0.028-0.38 0-0.012 0-0.020-0.004-0.032-0.008-0.124-0.016-0.244-0.024-0.368 0-0.020 0-0.040-0.004-0.056-0.008-0.116-0.012-0.232-0.020-0.348 0-0.024-0.004-0.052-0.004-0.076 0-0.032-0.004-0.064-0.004-0.096 0-0.004 0-0.012 0-0.016-0.004-0.072-0.004-0.144-0.008-0.216 0-0.048-0.004-0.092-0.004-0.14-0.004-0.092-0.004-0.18-0.008-0.272 0-0.068-0.004-0.136-0.004-0.204 0-0.072-0.004-0.144-0.004-0.216 0-0.14-0.004-0.28-0.004-0.42s0-0.28 0.004-0.42c0-0.072 0.004-0.144 0.004-0.216 0-0.068 0.004-0.136 0.004-0.204 0.004-0.088 0.004-0.18 0.008-0.272 0-0.048 0.004-0.092 0.004-0.14 0.004-0.108 0.008-0.22 0.012-0.328 0-0.024 0.004-0.052 0.004-0.076 0.004-0.116 0.012-0.232 0.020-0.348 0-0.020 0-0.036 0.004-0.056 0.008-0.124 0.016-0.244 0.024-0.368 0-0.012 0-0.020 0.004-0.032 0.008-0.128 0.020-0.252 0.028-0.38 0-0.008 0-0.016 0.004-0.024 0.012-0.128 0.024-0.256 0.032-0.384 0-0.004 0-0.004 0-0.008l-8.912-10.864c-0.368-0.448-0.66-0.944-0.868-1.464v0c0 0 0 0 0 0-0.012-0.028-0.024-0.056-0.032-0.084-0.012-0.028-0.024-0.060-0.032-0.088-0.012-0.032-0.024-0.064-0.032-0.096-0.008-0.028-0.020-0.056-0.028-0.080-0.012-0.032-0.020-0.064-0.032-0.092-0.012-0.032-0.020-0.068-0.032-0.104-0.016-0.052-0.028-0.1-0.040-0.152-0.008-0.028-0.016-0.056-0.020-0.084-0.008-0.032-0.016-0.064-0.024-0.096-0.008-0.028-0.012-0.060-0.020-0.088-0.008-0.032-0.012-0.060-0.020-0.092-0.008-0.036-0.012-0.076-0.020-0.112-0.008-0.048-0.016-0.096-0.024-0.144-0.004-0.032-0.008-0.060-0.012-0.092s-0.008-0.064-0.012-0.092c-0.004-0.032-0.008-0.064-0.008-0.096-0.004-0.028-0.004-0.060-0.008-0.088-0.004-0.056-0.008-0.116-0.012-0.172 0-0.024 0-0.044-0.004-0.068 0-0.040-0.004-0.080-0.004-0.12 0-0.028 0-0.056 0-0.084 0-0.036 0-0.072 0-0.108 0-0.028 0-0.056 0-0.080 0-0.060 0.004-0.116 0.008-0.176 0-0.020 0.004-0.040 0.004-0.060 0.004-0.044 0.008-0.084 0.012-0.128 0.004-0.028 0.008-0.056 0.008-0.084 0.004-0.036 0.008-0.072 0.012-0.112 0.004-0.028 0.008-0.052 0.012-0.080 0.008-0.056 0.016-0.112 0.028-0.164 0.004-0.020 0.008-0.044 0.012-0.064 0.008-0.044 0.016-0.088 0.028-0.132 0.004-0.024 0.012-0.048 0.016-0.072 0.008-0.040 0.020-0.084 0.032-0.124 0.004-0.020 0.012-0.044 0.016-0.064 0.016-0.060 0.032-0.12 0.052-0.176 0.004-0.012 0.008-0.024 0.012-0.036 0.016-0.048 0.032-0.096 0.048-0.144 0.008-0.024 0.016-0.044 0.024-0.068 0.016-0.040 0.028-0.080 0.044-0.12 0.008-0.020 0.016-0.040 0.024-0.064 0.024-0.060 0.048-0.116 0.072-0.176 0-0.004 0.004-0.008 0.008-0.016 0.024-0.056 0.048-0.108 0.076-0.164 0.008-0.020 0.016-0.036 0.028-0.056 0.020-0.044 0.044-0.084 0.064-0.128 0.008-0.020 0.020-0.036 0.028-0.052 0.032-0.060 0.064-0.116 0.096-0.172l3.828-6.632c1.176-2.040 3.496-3.136 5.816-2.752l13.864 2.284c1.76-1.256 3.644-2.352 5.636-3.26l4.948-13.14c0.832-2.204 2.94-3.66 5.292-3.66h7.656c2.356 0 4.464 1.46 5.292 3.66l4.952 13.14c1.988 0.908 3.872 2 5.636 3.26l13.864-2.284c2.324-0.384 4.64 0.712 5.816 2.752l3.828 6.632c0.032 0.056 0.064 0.116 0.096 0.172 0.008 0.016 0.020 0.036 0.028 0.052 0.020 0.044 0.044 0.084 0.064 0.128 0.008 0.020 0.020 0.036 0.028 0.056 0.024 0.056 0.052 0.108 0.076 0.164 0.004 0.004 0.004 0.008 0.008 0.016 0.024 0.060 0.048 0.116 0.072 0.176 0.008 0.020 0.016 0.044 0.024 0.064 0.016 0.040 0.028 0.080 0.044 0.12 0.008 0.024 0.016 0.048 0.024 0.068 0.016 0.048 0.032 0.096 0.048 0.144 0.004 0.012 0.008 0.024 0.012 0.036 0.020 0.060 0.032 0.12 0.048 0.176 0.004 0.020 0.012 0.044 0.016 0.064 0.012 0.040 0.020 0.084 0.032 0.124 0.004 0.024 0.012 0.048 0.016 0.072 0.008 0.044 0.020 0.088 0.028 0.132 0.004 0.020 0.008 0.040 0.012 0.064 0.012 0.056 0.020 0.112 0.028 0.164 0.004 0.028 0.008 0.052 0.012 0.080 0.004 0.036 0.008 0.072 0.012 0.112 0.004 0.028 0.008 0.056 0.008 0.084 0.004 0.044 0.008 0.084 0.012 0.128 0 0.020 0.004 0.040 0.004 0.060 0.004 0.060 0.008 0.116 0.008 0.176 0 0.028 0 0.056 0.004 0.080 0 0.036 0 0.072 0 0.108-0.016 0.028-0.016 0.056-0.016 0.084zM626.6 509.78c0.016 0.092 0.028 0.184 0.044 0.276 0.004 0.020 0.008 0.040 0.012 0.064 0.016 0.084 0.032 0.168 0.048 0.252 0.004 0.028 0.012 0.052 0.016 0.080 0.016 0.080 0.032 0.16 0.052 0.24 0.008 0.028 0.012 0.060 0.020 0.088 0.020 0.080 0.036 0.16 0.056 0.24 0.008 0.028 0.012 0.056 0.020 0.084 0.020 0.080 0.040 0.16 0.060 0.244 0.008 0.024 0.012 0.048 0.020 0.072 0.024 0.084 0.048 0.168 0.072 0.252 0.004 0.016 0.008 0.028 0.012 0.044 0.144 0.492 0.316 0.972 0.508 1.444 0.004 0.012 0.012 0.028 0.016 0.040 0.032 0.080 0.068 0.156 0.1 0.236 0.012 0.024 0.020 0.044 0.028 0.068 0.032 0.076 0.068 0.148 0.1 0.224 0.012 0.024 0.024 0.052 0.036 0.076 0.032 0.072 0.068 0.14 0.104 0.212 0.012 0.028 0.028 0.056 0.044 0.088 0.036 0.068 0.068 0.136 0.104 0.204 0.016 0.028 0.032 0.056 0.044 0.084 0.036 0.068 0.072 0.136 0.108 0.2 0.016 0.028 0.032 0.056 0.048 0.084 0.036 0.068 0.076 0.132 0.116 0.2 0.016 0.024 0.028 0.048 0.044 0.076 0.040 0.072 0.084 0.14 0.124 0.208 0.008 0.012 0.016 0.024 0.024 0.036 0.156 0.256 0.324 0.508 0.496 0.752 0 0 0.004 0.004 0.004 0.004 0.048 0.068 0.096 0.132 0.144 0.196 0.016 0.024 0.032 0.044 0.048 0.068 0.044 0.060 0.088 0.116 0.132 0.176 0.024 0.028 0.044 0.056 0.068 0.088 0.044 0.056 0.088 0.112 0.132 0.168 0.024 0.028 0.048 0.060 0.072 0.088 0.044 0.052 0.088 0.108 0.132 0.16 0.028 0.032 0.052 0.064 0.080 0.092 0.044 0.052 0.088 0.1 0.132 0.152 0.028 0.032 0.056 0.064 0.084 0.096 0.044 0.048 0.088 0.1 0.136 0.148 0.028 0.028 0.052 0.056 0.080 0.084 0.048 0.052 0.096 0.104 0.144 0.152 0.024 0.028 0.052 0.052 0.076 0.080 0.048 0.052 0.1 0.1 0.148 0.152 0.028 0.028 0.056 0.052 0.080 0.080 0.052 0.048 0.104 0.1 0.152 0.148 0.012 0.012 0.020 0.020 0.032 0.028 0.12 0.116 0.244 0.224 0.368 0.336 0.024 0.020 0.044 0.040 0.068 0.060 0.052 0.044 0.104 0.092 0.16 0.136 0.028 0.024 0.060 0.052 0.088 0.076 0.048 0.040 0.1 0.084 0.152 0.124 0.036 0.028 0.072 0.056 0.108 0.088 0.048 0.036 0.096 0.076 0.144 0.112 0.040 0.028 0.080 0.060 0.116 0.088 0.048 0.036 0.092 0.068 0.14 0.104 0.044 0.032 0.088 0.064 0.132 0.096s0.088 0.064 0.132 0.096c0.044 0.032 0.092 0.064 0.14 0.096s0.092 0.064 0.14 0.092c0.044 0.028 0.088 0.060 0.132 0.088 0.048 0.032 0.096 0.064 0.144 0.092s0.092 0.060 0.14 0.088c0.048 0.028 0.092 0.056 0.14 0.084 0.052 0.032 0.104 0.064 0.16 0.092 0.040 0.024 0.084 0.048 0.124 0.076 0.080 0.048 0.164 0.092 0.244 0.136 0.028 0.016 0.060 0.032 0.092 0.048 0.080 0.044 0.164 0.088 0.244 0.128 0.040 0.020 0.080 0.040 0.12 0.060 0.060 0.028 0.116 0.056 0.172 0.084 0.048 0.024 0.096 0.044 0.14 0.068 0.056 0.024 0.108 0.052 0.164 0.076 0.048 0.020 0.092 0.040 0.14 0.064 0.056 0.024 0.112 0.048 0.164 0.072 0.048 0.020 0.096 0.040 0.144 0.060 0.056 0.024 0.112 0.044 0.168 0.068 0.048 0.020 0.096 0.040 0.144 0.056 0.056 0.024 0.112 0.044 0.172 0.064 0.048 0.020 0.096 0.036 0.144 0.052 0.060 0.024 0.12 0.044 0.184 0.064 0.044 0.016 0.088 0.032 0.136 0.048 0.064 0.020 0.124 0.040 0.188 0.060 0.048 0.016 0.092 0.028 0.14 0.044 0.064 0.020 0.132 0.040 0.196 0.060 0.044 0.012 0.084 0.024 0.128 0.036 0.092 0.028 0.184 0.052 0.272 0.076 0.032 0.008 0.068 0.016 0.1 0.024 0.096 0.024 0.188 0.048 0.284 0.068 0.032 0.008 0.068 0.016 0.1 0.024 0.080 0.016 0.156 0.036 0.236 0.052 0.044 0.008 0.084 0.016 0.128 0.024 0.068 0.012 0.14 0.028 0.208 0.040 0.048 0.008 0.092 0.016 0.14 0.024 0.068 0.012 0.132 0.024 0.2 0.032 0.048 0.008 0.1 0.016 0.148 0.024 0.064 0.008 0.132 0.020 0.196 0.028 0.048 0.008 0.096 0.012 0.144 0.020 0.068 0.008 0.136 0.016 0.2 0.024 0.048 0.004 0.1 0.012 0.148 0.016 0.068 0.008 0.136 0.012 0.204 0.020 0.048 0.004 0.096 0.008 0.144 0.012 0.068 0.004 0.14 0.008 0.212 0.012 0.048 0.004 0.092 0.004 0.14 0.008 0.076 0.004 0.152 0.008 0.228 0.008 0.040 0 0.084 0.004 0.128 0.004 0.116 0.004 0.236 0.004 0.352 0.004s0.236 0 0.352-0.004c0.044 0 0.084-0.004 0.128-0.004 0.076-0.004 0.152-0.004 0.228-0.008 0.048-0.004 0.092-0.004 0.14-0.008 0.072-0.004 0.14-0.008 0.212-0.012 0.048-0.004 0.096-0.008 0.144-0.012 0.068-0.004 0.136-0.012 0.204-0.020 0.048-0.004 0.1-0.012 0.148-0.016 0.068-0.008 0.136-0.016 0.2-0.024 0.048-0.008 0.096-0.012 0.144-0.020 0.064-0.008 0.132-0.020 0.196-0.028 0.048-0.008 0.1-0.016 0.148-0.024 0.068-0.012 0.132-0.020 0.2-0.032 0.048-0.008 0.092-0.016 0.14-0.024 0.068-0.012 0.14-0.028 0.208-0.040 0.044-0.008 0.084-0.016 0.128-0.024 0.080-0.016 0.156-0.032 0.236-0.052 0.032-0.008 0.068-0.016 0.1-0.024 0.096-0.024 0.188-0.044 0.284-0.068 0.032-0.008 0.068-0.016 0.1-0.024 0.092-0.024 0.184-0.048 0.272-0.076 0.044-0.012 0.084-0.024 0.128-0.036 0.064-0.020 0.132-0.040 0.196-0.060 0.048-0.016 0.092-0.028 0.14-0.044 0.064-0.020 0.124-0.040 0.188-0.060 0.044-0.016 0.092-0.032 0.136-0.048 0.060-0.020 0.12-0.044 0.184-0.064 0.048-0.016 0.096-0.036 0.144-0.052 0.056-0.020 0.116-0.044 0.172-0.064 0.048-0.020 0.096-0.036 0.144-0.056 0.056-0.024 0.112-0.044 0.168-0.068 0.048-0.020 0.096-0.040 0.144-0.060 0.056-0.024 0.112-0.048 0.164-0.072 0.048-0.020 0.096-0.040 0.14-0.064 0.056-0.024 0.108-0.052 0.164-0.076 0.048-0.024 0.096-0.044 0.14-0.068 0.060-0.028 0.116-0.056 0.172-0.084 0.040-0.020 0.080-0.040 0.12-0.060 0.080-0.040 0.164-0.084 0.244-0.128 0.032-0.016 0.060-0.032 0.092-0.048 0.080-0.044 0.164-0.088 0.244-0.136 0.044-0.024 0.084-0.048 0.124-0.076 0.052-0.032 0.108-0.064 0.16-0.092 0.048-0.028 0.092-0.056 0.14-0.084s0.092-0.060 0.14-0.088c0.048-0.032 0.096-0.060 0.144-0.092 0.044-0.028 0.088-0.056 0.132-0.088 0.048-0.032 0.092-0.064 0.14-0.092 0.048-0.032 0.092-0.064 0.14-0.096 0.044-0.032 0.088-0.064 0.132-0.096s0.088-0.064 0.132-0.096c0.048-0.032 0.092-0.068 0.14-0.104 0.040-0.028 0.080-0.060 0.12-0.088 0.048-0.036 0.096-0.076 0.144-0.112 0.036-0.028 0.072-0.056 0.108-0.088 0.052-0.040 0.1-0.080 0.152-0.124 0.032-0.024 0.060-0.052 0.092-0.076 0.052-0.044 0.108-0.088 0.16-0.136 0.024-0.020 0.044-0.040 0.068-0.060 0.124-0.112 0.248-0.22 0.368-0.336 0.012-0.012 0.020-0.020 0.032-0.028 0.056-0.052 0.108-0.104 0.164-0.156 0.024-0.024 0.048-0.044 0.072-0.068 0.052-0.052 0.104-0.104 0.156-0.156 0.024-0.024 0.048-0.048 0.072-0.076 0.048-0.052 0.096-0.104 0.144-0.156 0.028-0.028 0.052-0.056 0.080-0.084 0.044-0.048 0.092-0.1 0.136-0.148 0.028-0.032 0.056-0.064 0.084-0.096 0.044-0.052 0.088-0.1 0.132-0.152 0.028-0.032 0.052-0.060 0.080-0.092 0.044-0.052 0.088-0.108 0.132-0.16 0.024-0.028 0.048-0.060 0.072-0.088 0.044-0.056 0.088-0.112 0.132-0.168 0.024-0.028 0.044-0.056 0.068-0.088 0.044-0.060 0.088-0.116 0.132-0.176 0.016-0.024 0.032-0.044 0.048-0.068 0.048-0.064 0.096-0.132 0.144-0.196 0 0 0.004-0.004 0.004-0.004 0.172-0.244 0.34-0.496 0.496-0.752 0.008-0.012 0.016-0.024 0.024-0.036 0.044-0.068 0.084-0.14 0.124-0.208 0.016-0.024 0.028-0.048 0.044-0.076 0.040-0.068 0.076-0.132 0.116-0.2 0.016-0.028 0.032-0.056 0.048-0.084 0.036-0.068 0.072-0.136 0.108-0.2 0.016-0.028 0.032-0.056 0.044-0.084 0.036-0.068 0.068-0.136 0.104-0.204 0.016-0.028 0.028-0.056 0.044-0.088 0.036-0.072 0.068-0.14 0.104-0.212 0.012-0.024 0.024-0.048 0.036-0.076 0.036-0.076 0.068-0.148 0.1-0.224 0.012-0.024 0.020-0.044 0.032-0.068 0.036-0.080 0.068-0.156 0.1-0.236 0.004-0.012 0.012-0.028 0.016-0.040 0.196-0.468 0.364-0.952 0.508-1.444 0.004-0.016 0.008-0.028 0.012-0.044 0.024-0.084 0.048-0.168 0.072-0.252 0.008-0.024 0.012-0.048 0.020-0.072 0.020-0.080 0.040-0.16 0.060-0.244 0.008-0.028 0.012-0.056 0.020-0.084 0.020-0.080 0.036-0.16 0.056-0.24 0.008-0.028 0.012-0.060 0.020-0.088 0.016-0.080 0.032-0.16 0.048-0.24 0.004-0.028 0.012-0.052 0.016-0.080 0.016-0.084 0.032-0.168 0.048-0.252 0.004-0.020 0.008-0.040 0.012-0.064 0.016-0.092 0.032-0.184 0.044-0.276 0.104-0.692 0.156-1.4 0.156-2.12 0-7.94-6.436-14.376-14.376-14.376s-14.376 6.436-14.376 14.376c-0.008 0.72 0.044 1.428 0.148 2.12z" />
<glyph unicode="&#xe96f;" d="M674.596 510.792c0.1 1.068 0.152 2.156 0.152 3.252s-0.052 2.18-0.152 3.252l8.908 10.864c1.492 1.82 1.704 4.376 0.524 6.416l-3.828 6.632c-1.176 2.040-3.492 3.136-5.816 2.752l-13.864-2.284c-1.76 1.256-3.644 2.352-5.636 3.26l-4.952 13.14c-0.828 2.204-2.936 3.66-5.292 3.66h-7.656c-2.356 0-4.464-1.46-5.292-3.66l-4.948-13.14c-1.988-0.908-3.876-2-5.636-3.26l-13.864 2.284c-2.324 0.384-4.64-0.712-5.816-2.752l-3.828-6.632c-1.176-2.040-0.968-4.592 0.524-6.416l8.912-10.864c-0.1-1.072-0.156-2.156-0.156-3.252s0.052-2.18 0.156-3.252l-8.912-10.864c-1.492-1.82-1.7-4.376-0.524-6.416l3.828-6.632c1.176-2.040 3.492-3.136 5.816-2.752l13.864 2.284c1.76-1.256 3.648-2.352 5.636-3.26l4.948-13.14c0.832-2.204 2.94-3.66 5.292-3.66h7.656c2.356 0 4.464 1.46 5.292 3.66l4.952 13.14c1.988 0.908 3.876 2 5.636 3.26l13.864-2.284c2.324-0.384 4.64 0.712 5.816 2.752l3.828 6.632c1.176 2.040 0.968 4.592-0.524 6.416l-8.908 10.864zM655.192 514.044c0-7.94-6.436-14.376-14.376-14.376s-14.376 6.436-14.376 14.376 6.436 14.376 14.376 14.376c7.94 0 14.376-6.436 14.376-14.376z" />
<glyph unicode="&#xe970;" d="M606.896 517.472c-0.004 0.272-0.008 0.544-0.008 0.816 0 1.096 0.052 2.18 0.156 3.252l-8.912 10.864c-0.368 0.448-0.66 0.944-0.868 1.464-0.768-1.9-0.456-4.092 0.868-5.708l8.764-10.688z" />
<glyph unicode="&#xe971;" d="M640.82 532.66c-7.94 0-14.376-6.436-14.376-14.376 0-0.72 0.052-1.428 0.156-2.12 1.024 6.932 7 12.252 14.22 12.252 7.216 0 13.192-5.32 14.22-12.252 0.1 0.692 0.156 1.4 0.156 2.12-0.004 7.94-6.44 14.376-14.376 14.376z" />
<glyph unicode="&#xe972;" d="M674.596 515.036l0.144-0.176c-0.012 0.436-0.028 0.872-0.056 1.308-0.024-0.38-0.052-0.756-0.088-1.132z" />
<glyph unicode="&#xe973;" d="M607.040 515.036c-0.036 0.376-0.064 0.752-0.088 1.132-0.028-0.432-0.044-0.868-0.056-1.308l0.144 0.176z" />
<glyph unicode="&#xe974;" d="M683.508 532.4l-8.908-10.864c0.1-1.072 0.152-2.156 0.152-3.252 0-0.272-0.004-0.544-0.008-0.816l8.764 10.688c1.324 1.616 1.636 3.808 0.868 5.708-0.212-0.52-0.5-1.012-0.868-1.464z" />
<glyph unicode="&#xe975;" d="M684.032 497.756l-3.828-6.632c-1.176-2.040-3.492-3.136-5.816-2.752l-13.864 2.284c-1.76-1.26-3.644-2.352-5.636-3.26l-4.952-13.14c-0.828-2.204-2.936-3.664-5.292-3.664h-7.656c-2.356 0-4.464 1.46-5.292 3.664l-4.948 13.14c-1.988 0.908-3.876 2-5.636 3.26l-13.864-2.284c-2.324-0.384-4.64 0.712-5.816 2.752l-3.828 6.632c-0.132 0.232-0.248 0.468-0.344 0.708-0.64-1.588-0.54-3.416 0.344-4.948l3.828-6.632c1.176-2.040 3.492-3.136 5.816-2.752l13.864 2.284c1.76-1.256 3.648-2.352 5.636-3.26l4.948-13.14c0.832-2.204 2.94-3.66 5.292-3.66h7.656c2.356 0 4.464 1.46 5.292 3.66l4.952 13.14c1.988 0.908 3.876 2 5.636 3.26l13.864-2.284c2.324-0.384 4.64 0.712 5.816 2.752l3.828 6.632c0.888 1.536 0.988 3.364 0.344 4.948-0.096-0.24-0.212-0.476-0.344-0.708z" />
<glyph unicode="&#xe976;" d="M640.82 547.976c-18.74 0-33.932-15.192-33.932-33.932s15.192-33.932 33.932-33.932c18.74 0 33.932 15.192 33.932 33.932s-15.192 33.932-33.932 33.932zM640.82 499.672c-7.94 0-14.376 6.436-14.376 14.376s6.436 14.376 14.376 14.376c7.94 0 14.376-6.436 14.376-14.376s-6.44-14.376-14.376-14.376z" />
<glyph unicode="&#xe977;" d="M640.82 535.96c-12.104 0-21.916-9.812-21.916-21.916s9.812-21.916 21.916-21.916c12.104 0 21.916 9.812 21.916 21.916s-9.816 21.916-21.916 21.916zM640.82 499.672c-7.94 0-14.376 6.436-14.376 14.376s6.436 14.376 14.376 14.376c7.94 0 14.376-6.436 14.376-14.376s-6.44-14.376-14.376-14.376z" />
<glyph unicode="&#xe978;" d="M720.852 597.868h-160.068c-4.888 0-8.852-3.964-8.852-8.852v-17.336h177.768v17.336c0.004 4.888-3.96 8.852-8.848 8.852z" />
<glyph unicode="&#xe979;" d="M571.48 584.772c0-2.24-1.816-4.056-4.056-4.056s-4.056 1.816-4.056 4.056c0 2.24 1.816 4.056 4.056 4.056 2.24 0.004 4.056-1.812 4.056-4.056z" />
<glyph unicode="&#xe97a;" d="M586.972 584.772c0-2.24-1.816-4.056-4.056-4.056s-4.056 1.816-4.056 4.056c0 2.24 1.816 4.056 4.056 4.056s4.056-1.812 4.056-4.056z" />
<glyph unicode="&#xe97b;" d="M602.46 584.772c0-2.24-1.816-4.056-4.056-4.056s-4.056 1.816-4.056 4.056c0 2.24 1.816 4.056 4.056 4.056 2.24 0.004 4.056-1.812 4.056-4.056z" />
<glyph unicode="&#xe97c;" d="M709.128 433.336h-133.544c-3.064 0-5.548 2.484-5.548 5.548v6.936c0 3.064 2.484 5.552 5.548 5.552h133.544c3.064 0 5.548-2.484 5.548-5.552v-6.936c0.004-3.064-2.484-5.548-5.548-5.548z" />
<glyph unicode="&#xe97d;" d="M709.128 430.14h-133.544c-3.064 0-5.548 2.484-5.548 5.548v6.936c0 3.064 2.484 5.552 5.548 5.552h133.544c3.064 0 5.548-2.484 5.548-5.552v-6.936c0.004-3.064-2.484-5.548-5.548-5.548z" />
<glyph unicode="&#xe97e;" d="M709.128 448.18h-133.544c-3.064 0-5.548-2.484-5.548-5.552v-4.788c0 3.064 2.484 5.548 5.548 5.548h133.544c3.064 0 5.548-2.484 5.548-5.548v4.788c0.004 3.064-2.484 5.552-5.548 5.552z" />
<glyph unicode="&#xe97f;" d="M654.324 430.14h-78.74c-3.064 0-5.548 2.484-5.548 5.548v6.936c0 3.064 2.484 5.552 5.548 5.552h78.74v-18.036z" />
<glyph unicode="&#xe980;" d="M575.584 448.18c-3.064 0-5.548-2.484-5.548-5.552v-4.788c0 3.064 2.484 5.548 5.548 5.548h78.74v4.792h-78.74z" />
<glyph unicode="&#xe981;" d="M388.964 577.696c-52.284 0-94.664-42.384-94.664-94.668s42.384-94.668 94.664-94.668c52.284 0 94.668 42.384 94.668 94.668-0.004 52.284-42.384 94.668-94.668 94.668zM388.964 459.864c-12.796 0-23.164 10.372-23.164 23.168 0 12.792 10.372 23.168 23.164 23.168 12.796 0 23.168-10.372 23.168-23.168-0.004-12.796-10.376-23.168-23.168-23.168z" />
<glyph unicode="&#xe982;" d="M388.964 589.696c-52.284 0-94.664-42.384-94.664-94.668s42.384-94.668 94.664-94.668c52.284 0 94.668 42.384 94.668 94.668-0.004 52.284-42.384 94.668-94.668 94.668zM388.964 471.864c-12.796 0-23.164 10.372-23.164 23.168 0 12.792 10.372 23.168 23.164 23.168 12.796 0 23.168-10.372 23.168-23.168-0.004-12.796-10.376-23.168-23.168-23.168z" />
<glyph unicode="&#xe983;" d="M388.964 601.696c-52.284 0-94.664-42.384-94.664-94.668s42.384-94.668 94.664-94.668c52.284 0 94.668 42.384 94.668 94.668-0.004 52.284-42.384 94.668-94.668 94.668zM388.964 483.864c-12.796 0-23.164 10.372-23.164 23.168 0 12.792 10.372 23.168 23.164 23.168 12.796 0 23.168-10.372 23.168-23.168-0.004-12.796-10.376-23.168-23.168-23.168z" />
<glyph unicode="&#xe984;" d="M412.128 507.028c0-3.728-0.9-7.236-2.464-10.356 20.128-7.736 48.388-18.568 66.908-25.524 4.54 11.068 7.056 23.18 7.056 35.88 0 21.596-7.244 41.488-19.416 57.416l-57.368-42.688c3.304-4 5.284-9.132 5.284-14.728z" />
<glyph unicode="&#xe985;" d="M390.128 601.668l-7.444-72.356c2 0.564 4.1 0.884 6.284 0.884 3.96 0 7.684-1 10.944-2.748 11.656 18.084 28.516 44.324 38.532 60.292-14.092 8.656-30.624 13.712-48.316 13.928z" />
<glyph unicode="&#xe986;" d="M366.956 499.824l-70.696-12.032c5.424-26.268 21.732-48.556 44-61.944l41.628 59.124c-7.060 2.264-12.632 7.816-14.932 14.852z" />
<glyph unicode="&#xe987;" d="M624 48h-224c-44.112 0-80-35.888-80-80h384c0 44.112-35.888 80-80 80z" />
<glyph unicode="&#xe988;" d="M400 848h224c44.112 0 80 35.888 80 80h-384c0-44.112 35.888-80 80-80z" />
<glyph unicode="&#xe989;" d="M736 128c-35.296 0-64 28.704-64 64s28.704 64 64 64 64-28.704 64-64-28.704-64-64-64z" />
<glyph unicode="&#xe98a;" d="M160 944v-992h704v992zM832-16h-640v928h640z" />
<glyph unicode="&#xe98b;" d="M667.312 619.312l-22.624-22.624 52.688-52.688-52.688-52.688 22.624-22.624 52.688 52.688 52.688-52.688 22.624 22.624-52.688 52.688 52.688 52.688-22.624 22.624-52.688-52.688z" />
<glyph unicode="&#xe98c;" d="M571.312 660.688l52.688 52.688 52.688-52.688 22.624 22.624-52.688 52.688 52.688 52.688-22.624 22.624-52.688-52.688-52.688 52.688-22.624-22.624 52.688-52.688-52.688-52.688z" />
<glyph unicode="&#xe98d;" d="M475.312 468.688l52.688 52.688 52.688-52.688 22.624 22.624-52.688 52.688 52.688 52.688-22.624 22.624-52.688-52.688-52.688 52.688-22.624-22.624 52.688-52.688-52.688-52.688z" />
<glyph unicode="&#xe98e;" d="M484.688 443.312l-52.688-52.688-52.688 52.688-22.624-22.624 52.688-52.688-52.688-52.688 22.624-22.624 52.688 52.688 52.688-52.688 22.624 22.624-52.688 52.688 52.688 52.688z" />
<glyph unicode="&#xe98f;" d="M387.12 198.272l55.136-21.2 11.488 29.872-55.136 21.2c-85.296 32.816-142.608 116.24-142.608 207.648 0 64.16 27.68 125.184 75.984 167.424l142.080 124.32-9.888-69.28 31.664-4.528 19.024 133.12-133.12-19.024 4.528-31.664 58.624 8.368-133.984-117.232c-55.248-48.32-86.912-118.128-86.912-191.504 0-104.544 65.552-200 163.12-237.52z" />
<glyph unicode="&#xe990;" d="M576 256c-35.296 0-64-28.704-64-64s28.704-64 64-64 64 28.704 64 64-28.704 64-64 64zM576 160c-17.648 0-32 14.352-32 32s14.352 32 32 32 32-14.352 32-32-14.352-32-32-32z" />
<glyph unicode="&#xe991;" d="M736 416c-35.296 0-64-28.704-64-64s28.704-64 64-64 64 28.704 64 64-28.704 64-64 64zM736 320c-17.648 0-32 14.352-32 32s14.352 32 32 32 32-14.352 32-32-14.352-32-32-32z" />
<glyph unicode="&#xe992;" d="M224 880h32v-32h-32z" />
<glyph unicode="&#xe993;" d="M224 816h32v-32h-32z" />
<glyph unicode="&#xe994;" d="M224 752h32v-32h-32z" />
<glyph unicode="&#xe995;" d="M224 48h32v-32h-32z" />
<glyph unicode="&#xe996;" d="M224 112h32v-32h-32z" />
<glyph unicode="&#xe997;" d="M224 176h32v-32h-32z" />
<glyph unicode="&#xe998;" d="M848 688v-384h-800v384c0 35.346 28.654 64 64 64v0h672c35.346 0 64-28.654 64-64v0z" />
<glyph unicode="&#xe999;" d="M848 304v-64c0-35.346-28.654-64-64-64v0h-672c-35.346 0-64 28.654-64 64v0 64z" />
<glyph unicode="&#xe99a;" d="M848 688v-200.48c-2.72-0.8-5.6-1.6-8.48-2.4l-7.52-53.12h-64l-7.52 53.12c-15.899 4.108-29.854 10.085-42.616 17.832l0.696-0.392-43.040-32.32-45.28 45.28 32.32 43.040c-7.354 12.065-13.332 26.021-17.198 40.829l-0.242 1.091-53.12 7.52v64l53.12 7.52c3.891 15.346 9.598 28.827 17.020 41.16l-0.38-0.68c0.222 0.55 0.491 1.024 0.812 1.457l-0.012-0.017-22.88 30.56h144.32c35.346 0 64-28.654 64-64v0z" />
<glyph unicode="&#xe99b;" d="M922.88 632.48c-4.108-15.899-10.085-29.854-17.832-42.616l0.392 0.696 32.32-43.040-45.28-45.28-43.040 32.32c-0.416-0.309-0.89-0.578-1.397-0.784l-0.043-0.016c-11.653-7.042-25.134-12.749-39.435-16.413l-1.045-0.227-7.52-53.12h-64l-7.52 53.12c-15.899 4.108-29.854 10.085-42.616 17.832l0.696-0.392-43.040-32.32-45.28 45.28 32.32 43.040c-7.354 12.065-13.332 26.021-17.198 40.829l-0.242 1.091-53.12 7.52v64l53.12 7.52c3.891 15.346 9.598 28.827 17.020 41.16l-0.38-0.68c0.222 0.55 0.491 1.024 0.812 1.457l-0.012-0.017-32.32 43.040 45.28 45.28 43.040-32.32c12.065 7.354 26.021 13.332 40.829 17.198l1.091 0.242 7.52 53.12h64l7.52-53.12c15.899-4.108 29.854-10.085 42.616-17.832l-0.696 0.392 43.040 32.32 45.28-45.28-32.32-43.040c7.354-12.065 13.332-26.021 17.198-40.829l0.242-1.091 53.12-7.52v-64z" />
<glyph unicode="&#xe99c;" d="M848 672c0-44.183-35.817-80-80-80s-80 35.817-80 80c0 44.183 35.817 80 80 80s80-35.817 80-80z" />
<glyph unicode="&#xe99d;" d="M630.56 38.56c5.827-5.687 9.44-13.618 9.44-22.394 0-0.059 0-0.117 0-0.175v0.009c-0.054-17.651-14.349-31.946-31.995-32h-320.005c-17.619 0.135-31.865 14.381-32 31.987v0.013c0.054 17.651 14.349 31.946 31.995 32h320.005c0.049 0 0.108 0 0.166 0 8.775 0 16.707-3.614 22.387-9.434l0.006-0.006z" />
<glyph unicode="&#xe99e;" d="M576 48h-256l16 128h224z" />
<glyph unicode="&#xe99f;" d="M528 337.6v-33.6h-384v33.6c0.010 38.874 23.124 72.347 56.357 87.435l0.603 0.245 87.040 38.72v42.88c-33.412 15.996-57.269 47.27-62.649 84.523l-0.071 0.597h-17.28c-17.673 0-32 14.327-32 32s14.327 32 32 32v0h16v32c-17.619 0.135-31.865 14.381-32 31.987v0.013c0.054 17.651 14.349 31.946 31.995 32h224.005c17.619-0.135 31.865-14.381 32-31.987v-0.013c-0.054-17.651-14.349-31.946-31.995-32h-0.005v-32h16c17.673 0 32-14.327 32-32s-14.327-32-32-32v0h-17.28c-5.469-37.843-29.319-69.111-62.052-84.831l-0.668-0.289v-42.88l87.040-38.72c33.836-15.333 56.95-48.806 56.96-87.679v-0.001z" />
<glyph unicode="&#xe9a0;" d="M496 369.6v-65.6h-144l-29.12 130.88 13.12 13.12 48-16 11.2 44.8 43.84-19.52c33.836-15.333 56.95-48.806 56.96-87.679v-0.001z" />
<glyph unicode="&#xe9a1;" d="M438.56 774.56c5.827-5.687 9.44-13.618 9.44-22.394 0-0.059 0-0.117 0-0.175v0.009c-0.054-17.651-14.349-31.946-31.995-32h-224.005c-17.619 0.135-31.865 14.381-32 31.987v0.013c0.054 17.651 14.349 31.946 31.995 32h224.005c0.049 0 0.108 0 0.166 0 8.775 0 16.707-3.614 22.387-9.434l0.006-0.006z" />
<glyph unicode="&#xe9a2;" d="M416 784h-80v94.56c40.281-6.95 71.61-38.28 78.478-77.99l0.082-0.57c0.916-4.754 1.44-10.222 1.44-15.812 0-0.066 0-0.132 0-0.198v0.010z" />
<glyph unicode="&#xe9a3;" d="M395.2 476.8l-11.2-44.8-48 16-16 32 32 16z" />
<glyph unicode="&#xe9a4;" d="M322.88 434.88l29.12-130.88h-96l29.12 130.88 18.88-18.88z" />
<glyph unicode="&#xe9a5;" d="M336 878.56v-94.56h-64v112c0 8.837 7.163 16 16 16v0h32c8.837 0 16-7.163 16-16v0z" />
<glyph unicode="&#xe9a6;" d="M320 480l16-32-32-32-32 32 16 32z" />
<glyph unicode="&#xe9a7;" d="M288 480l-16-32-48-16-11.2 44.8 43.2 19.2z" />
<glyph unicode="&#xe9a8;" d="M285.12 434.88l-29.12-130.88h-144v65.6c0.010 38.874 23.124 72.347 56.357 87.435l0.603 0.245 43.84 19.52 11.2-44.8 48 16z" />
<glyph unicode="&#xe9a9;" d="M272 878.56v-94.56h-80c0 0.056 0 0.122 0 0.188 0 5.59 0.524 11.058 1.526 16.357l-0.086-0.545c6.987 40.262 38.298 71.573 77.987 78.478l0.573 0.082z" />
<glyph unicode="&#xe9aa;" d="M352 544v-48l-32-16h-32l-32 16v48z" />
<glyph unicode="&#xe9ab;" d="M208 688v-64h-32c-17.673 0-32 14.327-32 32s14.327 32 32 32v0z" />
<glyph unicode="&#xe9ac;" d="M464 656c-0.054-17.651-14.349-31.946-31.995-32h-32.005v64h32c17.651-0.054 31.946-14.349 32-31.995v-0.005z" />
<glyph unicode="&#xe9ad;" d="M352 544v-37.12c-14.040-6.865-30.551-10.879-48-10.879s-33.96 4.014-48.66 11.17l0.66-0.29v37.12z" />
<glyph unicode="&#xe9ae;" d="M416 688v-48c0.004-0.311 0.006-0.678 0.006-1.045 0-5.284-0.468-10.459-1.365-15.485l0.078 0.53c-5.469-37.843-29.319-69.111-62.052-84.831l-0.668-0.289c-14.076-6.874-30.627-10.893-48.117-10.893-56.159 0-102.639 41.44-110.531 95.409l-0.073 0.605c-0.818 4.496-1.286 9.671-1.286 14.955 0 0.367 0.002 0.734 0.007 1.101l-0.001-0.056v80h224z" />
<glyph unicode="&#xe9af;" d="M192 720h224v-32h-224z" />
<glyph unicode="&#xe9b0;" d="M564 144h-232l4 32h224z" />
<glyph unicode="&#xe9b1;" d="M496 768h80v-32h-80z" />
<glyph unicode="&#xe9b2;" d="M832 480v-160h-320v49.6c-0.024 45.321-26.963 84.345-65.698 101.954l-0.702 0.286-77.6 34.56v22.88c29.245 17.251 50.777 44.935 59.633 77.818l0.207 0.902h4.16c26.51 0 48 21.49 48 48s-21.49 48-48 48v0 2.88c18.795 6.697 32.007 24.338 32.007 45.064 0 21.024-13.593 38.873-32.47 45.237l-0.337 0.098c-3.127 25.905-14.766 48.639-31.994 65.754l-0.006 0.006c-12.713 12.879-28.619 22.576-46.436 27.808l-0.764 0.192v4.96c-0.054 17.651-14.349 31.946-31.995 32h-32.005c-17.651-0.054-31.946-14.349-32-31.995v-4.805c-42.448-12.766-73.812-49.072-79.148-93.389l-0.052-0.531c-19.213-6.463-32.807-24.312-32.807-45.336 0-20.727 13.212-38.368 31.673-44.961l0.333-0.104v-2.88c-26.51 0-48-21.49-48-48s21.49-48 48-48v0h4.16c9.063-33.785 30.595-61.469 59.24-78.392l0.6-0.328v-22.88l-77.6-34.56c-39.437-17.896-66.376-56.919-66.4-102.237v-49.603h-32v368c0.082 26.477 21.523 47.918 47.992 48h0.008v32c-44.183 0-80-35.817-80-80v0-448c0-44.183 35.817-80 80-80v0h205.92l-12-96h-17.92c-26.51 0-48-21.49-48-48s21.49-48 48-48v0h320c26.51 0 48 21.49 48 48s-21.49 48-48 48v0h-17.92l-12 96h205.92c44.183 0 80 35.817 80 80v0 240zM176 640c-8.837 0-16 7.163-16 16s7.163 16 16 16v0zM384 416c0.024 0 0.052 0 0.080 0 2.784 0 5.403 0.711 7.683 1.962l-0.083-0.042c3.865 2.191 6.703 5.812 7.815 10.127l0.025 0.113 6.56 26.24 26.4-11.68c28.231-12.768 47.52-40.686 47.52-73.11 0-0.004 0-0.007 0-0.011v0.001-49.6h-115.2l-24.32 109.6 38.4-12.8c1.525-0.476 3.282-0.766 5.102-0.8h0.018zM376.48 467.68l-3.84-15.040-25.28 8.48-5.92 11.68 11.040 5.44zM448 656c0-8.837-7.163-16-16-16v0 32c8.837 0 16-7.163 16-16v0zM352 857.12c9.544-4.219 17.706-9.818 24.651-16.651l-0.011 0.011c10.799-10.705 18.506-24.512 21.673-39.973l0.087-0.507h-46.4zM288 896h32v-96h-32zM256 857.12v-57.12h-46.4c5.378 25.85 22.744 46.75 45.891 56.92l0.509 0.2zM176 752c0 8.837 7.163 16 16 16v0h224c8.837 0 16-7.163 16-16s-7.163-16-16-16v0h-224c-8.837 0-16 7.163-16 16v0zM208 640v64h192v-64c0-53.019-42.981-96-96-96s-96 42.981-96 96v0zM294.56 403.52c2.513-2.19 5.82-3.526 9.44-3.526s6.927 1.335 9.457 3.541l-0.017-0.015 18.56-83.52h-56zM291.52 451.2l6.4 12.8h12.16l6.4-12.8-12.48-12.64zM316.16 496h-24.32l-19.84 9.92v10.24c9.6-2.642 20.623-4.16 32-4.16s22.4 1.518 32.877 4.363l-0.877-0.203v-10.24zM255.52 478.24l11.040-5.44-5.92-11.68-25.28-8.48-3.84 15.040zM128 369.6c0 0.003 0 0.007 0 0.010 0 32.423 19.289 60.342 47.017 72.906l0.503 0.204 26.4 11.68 6.56-26.24c1.137-4.428 3.975-8.049 7.759-10.198l0.081-0.042c2.197-1.209 4.816-1.92 7.6-1.92 0.028 0 0.056 0 0.084 0h-0.004c1.838 0.034 3.595 0.324 5.254 0.836l-0.134-0.036 38.4 12.8-24.32-109.6h-115.2zM608 32c8.837 0 16-7.163 16-16s-7.163-16-16-16v0h-320c-8.837 0-16 7.163-16 16s7.163 16 16 16v0zM338.080 64l12 96h195.84l12-96zM832 240c-0.082-26.477-21.523-47.918-47.992-48h-672.008c-26.477 0.082-47.918 21.523-48 47.992v48.008h768z" />
<glyph unicode="&#xe9b3;" d="M736 256h32v-32h-32z" />
<glyph unicode="&#xe9b4;" d="M240 672h32v-32h-32z" />
<glyph unicode="&#xe9b5;" d="M336 672h32v-32h-32z" />
<glyph unicode="&#xe9b6;" d="M978.272 719.84l-42.912 6.128c-3.314 10.227-6.993 18.901-11.32 27.183l0.456-0.959 26 34.656c1.997 2.64 3.199 5.979 3.199 9.598 0 4.418-1.791 8.418-4.687 11.314l-45.248 45.248c-2.895 2.891-6.892 4.68-11.307 4.68-3.615 0-6.95-1.199-9.629-3.221l0.041 0.029-34.672-25.984c-7.32 3.862-15.994 7.536-24.992 10.497l-1.232 0.351-6.128 42.912c-1.151 7.805-7.803 13.728-15.838 13.728-0.001 0-0.001 0-0.002 0h-64c-0.001 0-0.001 0-0.002 0-8.035 0-14.687-5.923-15.827-13.641l-0.011-0.087-6.128-42.912c-10.227-3.308-18.901-6.982-27.184-11.304l0.96 0.456-34.672 25.984c-2.639 1.993-5.974 3.192-9.589 3.192-4.415 0-8.412-1.788-11.307-4.68v0l-45.248-45.248c-2.896-2.895-4.687-6.896-4.687-11.314 0-3.619 1.202-6.958 3.228-9.638l-0.029 0.040 26-34.656c-3.871-7.323-7.55-15.997-10.514-24.996l-0.35-1.228-42.912-6.128c-7.805-1.151-13.728-7.803-13.728-15.838 0-0.001 0-0.001 0-0.002v0-64c0-0.001 0-0.001 0-0.002 0-8.035 5.923-14.687 13.641-15.827l0.087-0.011 42.912-6.128c3.314-10.227 6.993-18.901 11.32-27.183l-0.456 0.959-26-34.656c-1.997-2.64-3.199-5.979-3.199-9.598 0-4.418 1.791-8.418 4.687-11.314l45.248-45.248c2.895-2.891 6.892-4.68 11.307-4.68 3.615 0 6.95 1.199 9.629 3.221l-0.041-0.029 34.672 25.984c7.323-3.866 15.997-7.54 24.996-10.499l1.228-0.349 6.128-42.912c1.151-7.805 7.803-13.728 15.838-13.728 0.001 0 0.001 0 0.002 0h64c0.001 0 0.001 0 0.002 0 8.035 0 14.687 5.923 15.827 13.641l0.011 0.087 6.128 42.912c10.23 3.313 18.905 6.986 27.189 11.306l-0.965-0.458 34.672-25.984c2.639-1.993 5.974-3.192 9.589-3.192 4.415 0 8.412 1.788 11.307 4.68v0l45.248 45.248c2.896 2.895 4.687 6.896 4.687 11.314 0 3.619-1.202 6.958-3.228 9.638l0.029-0.040-26 34.656c3.871 7.323 7.55 15.997 10.514 24.996l0.35 1.228 42.912 6.128c7.805 1.151 13.728 7.803 13.728 15.838 0 0.001 0 0.001 0 0.002v0 64c0 0.001 0 0.001 0 0.002 0 8.035-5.923 14.687-13.641 15.827l-0.087 0.011zM960 653.872l-39.408-5.632c-6.453-0.95-11.598-5.638-13.207-11.761l-0.025-0.111c-3.704-14.304-9.060-26.857-15.991-38.354l0.359 0.642c-1.405-2.333-2.237-5.149-2.237-8.159 0-3.627 1.207-6.973 3.242-9.657l-0.029 0.040 23.872-31.84-25.6-25.6-31.856 23.872c-2.64 1.997-5.979 3.198-9.598 3.198-3.012 0-5.829-0.832-8.234-2.279l0.072 0.040c-10.85-6.574-23.4-11.921-36.711-15.382l-0.985-0.218c-6.251-1.625-10.955-6.781-11.894-13.161l-0.010-0.087-5.632-39.424h-36.256l-5.616 39.408c-0.949 6.467-5.653 11.623-11.793 13.223l-0.111 0.025c-14.296 3.679-26.846 9.026-38.332 15.956l0.636-0.356c-2.333 1.406-5.151 2.238-8.162 2.238-3.619 0-6.958-1.202-9.638-3.228l0.040 0.029-31.856-23.872-25.6 25.6 23.872 31.84c2.006 2.644 3.213 5.989 3.213 9.617 0 3.010-0.831 5.827-2.277 8.231l0.040-0.072c-6.572 10.855-11.928 23.408-15.411 36.718l-0.221 0.994c-1.634 6.234-6.779 10.922-13.145 11.861l-0.087 0.011-39.424 5.648v36.256l39.408 5.632c6.453 0.95 11.598 5.638 13.207 11.761l0.025 0.111c3.704 14.304 9.060 26.857 15.991 38.354l-0.359-0.642c1.405 2.333 2.237 5.149 2.237 8.159 0 3.627-1.207 6.973-3.242 9.657l0.029-0.040-23.872 31.84 25.6 25.6 31.856-23.872c2.64-1.997 5.979-3.198 9.598-3.198 3.012 0 5.829 0.832 8.234 2.279l-0.072-0.040c10.85 6.574 23.4 11.921 36.711 15.382l0.985 0.218c6.251 1.625 10.955 6.781 11.894 13.161l0.010 0.087 5.632 39.424h36.256l5.616-39.408c0.949-6.467 5.653-11.623 11.793-13.223l0.111-0.025c14.296-3.679 26.846-9.026 38.332-15.956l-0.636 0.356c2.333-1.406 5.151-2.238 8.162-2.238 3.619 0 6.958 1.202 9.638 3.228l-0.040-0.029 31.856 23.872 25.6-25.6-23.872-31.84c-2.006-2.644-3.213-5.989-3.213-9.617 0-3.010 0.831-5.827 2.277-8.231l-0.040 0.072c6.572-10.855 11.928-23.408 15.411-36.718l0.221-0.994c1.634-6.234 6.779-10.922 13.145-11.861l0.087-0.011 39.424-5.648z" />
<glyph unicode="&#xe9b7;" d="M768 768c-53.019 0-96-42.981-96-96s42.981-96 96-96c53.019 0 96 42.981 96 96v0c-0.055 52.997-43.003 95.945-95.995 96h-0.005zM768 608c-35.346 0-64 28.654-64 64s28.654 64 64 64c35.346 0 64-28.654 64-64v0c0-35.346-28.654-64-64-64v0z" />
<glyph unicode="&#xe9b8;" d="M576 448h128v-32h-128z" />
<glyph unicode="&#xe9b9;" d="M576 384h128v-32h-128z" />
<glyph unicode="&#xe9ba;" horiz-adv-x="964" d="M0.375 788.622l473.632 168.753 486.382-165.753-78.751-626.635-407.631-225.753-401.256 222.753-72.376 626.635z" />
<glyph unicode="&#xe9bb;" horiz-adv-x="964" d="M960.39 791.622l-486.382 165.753v-1018.141l407.631 225.378 78.751 627.010z" />
<glyph unicode="&#xe9bc;" horiz-adv-x="964" d="M474.757 838.498v0l-295.13-656.635 110.252 1.875 59.251 148.127h264.754l64.876-150.002 105.377-1.875-309.38 658.51zM475.507 628.12l99.752-208.503h-187.503l87.751 208.503z" />
<glyph unicode="&#xe9bd;" horiz-adv-x="725" d="M725.468 758.76l-66.092-740.398-297.086-82.362-296.268 82.246-66.022 740.514z" />
<glyph unicode="&#xe9be;" horiz-adv-x="725" d="M602.794 65.508l56.48 632.704h-296.54v-699.258z" />
<glyph unicode="&#xe9bf;" horiz-adv-x="725" d="M151.354 423.566l8.14-90.82h203.24v90.82z" />
<glyph unicode="&#xe9c0;" horiz-adv-x="725" d="M362.734 607.39h-227.736l8.256-90.822h219.48z" />
<glyph unicode="&#xe9c1;" horiz-adv-x="725" d="M362.734 93.202v94.492l-0.398-0.106-101.148 27.312-6.466 72.434h-91.17l12.724-142.602 186.040-51.646z" />
<glyph unicode="&#xe9c2;" horiz-adv-x="725" d="M170.734 960h110v-46h-64v-46h64v-46h-110z" />
<glyph unicode="&#xe9c3;" horiz-adv-x="725" d="M302.734 960h110v-40h-64v-8h64v-92h-110v42h64v8h-64z" />
<glyph unicode="&#xe9c4;" horiz-adv-x="725" d="M434.734 960h110v-40h-64v-8h64v-92h-110v42h64v8h-64z" />
<glyph unicode="&#xe9c5;" horiz-adv-x="725" d="M474.256 332.746l-10.542-117.788-101.294-27.34v-94.488l186.188 51.602 1.366 15.344 21.342 239.102 2.216 24.388 16.396 183.824h-227.508v-90.822h127.976l-8.264-93.002h-119.712v-90.82z" />
<glyph unicode="&#xe9c6;" d="M904.32 813.714v0c-13.367 81.591-204.325 146.286-438.034 146.286s-424.667-64.695-438.034-146.286v0h-0.823v-676.571h0.823c13.367-81.573 204.343-146.286 438.034-146.286s424.667 64.713 438.034 146.286h0.823v676.571h-0.823z" />
<glyph unicode="&#xe9c7;" d="M466.286 210.286c-242.377 0-438.857 69.595-438.857 155.429v-228.571h0.823c13.367-81.573 204.343-146.286 438.034-146.286s424.667 64.713 438.034 146.286h0.823v228.571c0-85.833-196.48-155.429-438.857-155.429z" />
<glyph unicode="&#xe9c8;" d="M27.429 374.857v-9.143c0 3.072 0.329 6.107 0.823 9.143h-0.823z" />
<glyph unicode="&#xe9c9;" d="M904.32 374.857c0.494-3.035 0.823-6.071 0.823-9.143v9.143h-0.823z" />
<glyph unicode="&#xe9ca;" d="M466.286 429.714c-242.377 0-438.857 69.595-438.857 155.429v-228.571h0.823c13.367-81.573 204.343-146.286 438.034-146.286s424.667 64.713 438.034 146.286h0.823v228.571c0-85.833-196.48-155.429-438.857-155.429z" />
<glyph unicode="&#xe9cb;" d="M27.429 594.286v-9.143c0 3.072 0.329 6.107 0.823 9.143h-0.823z" />
<glyph unicode="&#xe9cc;" d="M904.32 594.286c0.494-3.035 0.823-6.071 0.823-9.143v9.143h-0.823z" />
<glyph unicode="&#xe9cd;" d="M905.143 804.571c0-85.841-196.483-155.429-438.857-155.429s-438.857 69.588-438.857 155.429c0 85.841 196.483 155.429 438.857 155.429s438.857-69.588 438.857-155.429z" />
<glyph unicode="&#xe9ce;" d="M466.286 649.143c-242.377 0-438.857 69.595-438.857 155.429v-228.571h0.823c13.367-81.573 204.343-146.286 438.034-146.286s424.667 64.713 438.034 146.286h0.823v228.571c0-85.833-196.48-155.429-438.857-155.429z" />
<glyph unicode="&#xe9cf;" d="M27.429 813.714v-9.143c0 3.072 0.329 6.107 0.823 9.143h-0.823z" />
<glyph unicode="&#xe9d0;" d="M904.32 813.714c0.494-3.035 0.823-6.071 0.823-9.143v9.143h-0.823z" />
<glyph unicode="&#xe9d1;" d="M905.966 135.113c-0.933 71.973-57.838 130.030-127.982 130.030-46.958 0-87.881-26.075-110.171-64.841-7.698 2.578-15.909 4.023-24.448 4.023-37.723 0-69.211-27.282-76.946-63.707-32.091-15.817-54.418-49.481-54.418-88.338 0-53.906 42.843-97.993 95.232-97.993h197.029c1.115 0 2.176 0.128 3.291 0.165 1.097-0.037 2.176-0.165 3.291-0.165h78.811c48.768 0 88.667 41.051 88.667 91.227-0.037 44.434-31.342 81.646-72.357 89.6z" />
<glyph unicode="&#xe9d2;" d="M889.618-64h-78.811c-1.152 0-2.304 0.073-3.438 0.146-0.859-0.073-1.975-0.146-3.127-0.146h-197.010c-62.592 0-113.518 52.169-113.518 116.261 0 41.362 22.107 79.945 56.978 100.626 12.544 40.869 50.213 69.723 92.635 69.723 5.413 0 10.825-0.457 16.165-1.39 27.355 38.693 71.57 62.208 118.491 62.208 75.008 0 137.582-58.971 145.445-134.071 43.118-14.738 73.143-56.302 73.143-103.845 0-60.379-47.982-109.513-106.953-109.513zM806.656-27.264l3.401-0.11 79.561-0.055c38.802 0 70.382 32.731 70.382 72.942 0 35.054-24.192 65.17-57.527 71.662l-14.61 2.834-0.201 14.866c-0.786 61.751-49.975 111.982-109.678 111.982-39.040 0-74.295-20.827-94.318-55.68l-7.479-13.001-14.208 4.773c-6.071 2.048-12.343 3.090-18.633 3.090-28.16 0-52.992-20.718-59.045-49.225l-1.865-8.686-7.954-3.913c-26.862-13.257-44.197-41.49-44.197-71.954 0-43.941 34.523-79.689 76.946-79.689l199.424 0.165z" />
<glyph unicode="&#xe9d3;" glyph-name="git" d="M978.712 491.198l-423.524 423.503c-24.386 24.397-63.942 24.397-88.349 0l-87.937-87.958 111.553-111.553c25.927 8.762 55.655 2.882 76.314-17.788 20.786-20.797 26.613-50.778 17.63-76.8l107.531-107.52c26.022 8.973 56.024 3.167 76.8-17.64 29.031-29.031 29.031-76.072 0-105.124-29.052-29.041-76.093-29.041-105.155 0-21.831 21.852-27.236 53.945-16.162 80.843l-100.289 100.278v-263.886c7.073-3.505 13.755-8.171 19.646-14.062 29.031-29.031 29.031-76.072 0-105.134-29.031-29.020-76.103-29.020-105.113 0-29.031 29.073-29.031 76.114 0 105.134 7.179 7.168 15.487 12.594 24.354 16.226v266.346c-8.868 3.632-17.155 9.005-24.354 16.226-21.99 21.979-27.279 54.261-16.004 81.265l-109.969 109.99-290.415-290.383c-24.397-24.418-24.397-63.974 0-88.37l423.545-423.514c24.386-24.397 63.931-24.397 88.349 0l421.55 421.55c24.397 24.397 24.397 63.974 0 88.37z" />
<glyph unicode="&#xe9d4;" horiz-adv-x="725" d="M659.379 18.341l-297.080-82.341-296.282 82.268-66.018 740.487h725.469z" />
<glyph unicode="&#xe9d5;" horiz-adv-x="725" d="M659.307 698.251h-296.572v-699.28l240.058 66.526z" />
<glyph unicode="&#xe9d6;" horiz-adv-x="725" d="M589.952 607.422h-227.507v-90.829h219.382zM573.629 423.588h-211.184v-330.451l186.228 51.653zM362.444 332.759h111.94l-10.519-117.816-101.421-27.35z" />
<glyph unicode="&#xe9d7;" horiz-adv-x="725" d="M159.458 332.759h203.204v90.829h-120.21l-8.27 93.005h128.481v90.829h-227.725zM176.217 144.718l186.518-51.508v94.456l-0.29-0.073-101.276 27.278-6.457 72.474h-91.191z" />
<glyph unicode="&#xe9d8;" horiz-adv-x="725" d="M155.903 960v-45.632h-42.222v45.632zM67.541 960v-138.057h46.14v46.212h42.222v-46.212h46.14v138.057zM222.066 960v-45.777h40.699v-92.28h46.14v92.28h40.626v45.777zM476.996 960l-29.527-48.534-29.599 48.534zM369.772 960v-138.057h45.124v68.412l31.776-49.114h0.798l31.776 49.114v-68.412h45.922v138.057zM548.165 960v-138.057h111.069v45.632h-64.93v92.425z" />
<glyph unicode="&#xe9d9;" d="M506.93 770.261c-47.316-33.278-100.942-70.996-129.677-133.399-49.908-108.87 102.124-227.625 108.622-232.627 1.51-1.162 3.318-1.742 5.12-1.742 1.914 0 3.83 0.654 5.386 1.958 3.018 2.524 3.874 6.812 2.062 10.304-0.55 1.060-55.122 107.060-53.094 183.105 0.718 26.486 37.784 56.532 77.024 88.342 35.94 29.136 76.68 62.158 100.516 100.788 52.328 85.032-5.832 168.645-6.426 169.481-2.31 3.244-6.574 4.418-10.22 2.82-3.642-1.608-5.66-5.546-4.828-9.44 0.118-0.554 11.428-55.846-20.044-112.812-12.964-23.54-41.452-43.576-74.442-66.778z" />
<glyph unicode="&#xe9da;" d="M706.277 732.765c3.338 2.514 4.318 7.1 2.3 10.76-2.022 3.66-6.422 5.274-10.33 3.79-8.038-3.056-196.833-75.83-196.833-163.761 0-60.614 25.892-92.634 44.798-116.018 7.416-9.172 13.818-17.092 15.928-23.854 5.94-19.486-8.132-54.706-14.050-66.634-1.706-3.428-0.87-7.584 2.032-10.088 1.568-1.354 3.526-2.042 5.486-2.042 1.668 0 3.344 0.496 4.792 1.504 3.246 2.256 79.334 56.052 65.688 120.866-5.084 24.636-17.19 42.636-27.872 58.52-16.548 24.61-28.5 42.386-10.368 75.218 21.244 38.296 117.454 111.010 118.428 111.738z" />
<glyph unicode="&#xe9db;" d="M214.837 363.526c-3.236-9.69-1.708-19.302 4.414-27.806 20.466-28.414 92.96-44.058 204.137-44.058 0.006 0 0.010 0 0.014 0 15.064 0 30.968 0.296 47.258 0.88 177.751 6.362 243.679 61.738 246.399 64.092 2.964 2.566 3.756 6.838 1.914 10.294-1.844 3.454-5.818 5.19-9.616 4.144-62.602-17.092-179.497-23.16-260.577-23.16-90.726 0-136.931 6.536-148.243 11.362 5.804 7.97 41.604 22.202 85.966 30.928 4.24 0.832 7.154 4.748 6.734 9.048s-4.032 7.58-8.354 7.58c-26.004 0-156.415-2.088-170.047-43.304z" />
<glyph unicode="&#xe9dc;" d="M809.627 420.562c-36.662 0-71.428-18.376-72.892-19.154-3.39-1.816-5.11-5.704-4.18-9.44 0.934-3.73 4.288-6.352 8.134-6.356 0.778 0 78.204-0.634 85.216-44.872 6.212-38.164-73.258-100-104.404-120.608-3.364-2.226-4.67-6.526-3.108-10.246 1.33-3.166 4.412-5.146 7.736-5.146 0.58 0 1.168 0.060 1.752 0.184 7.392 1.582 180.813 39.798 162.477 140.769-11.186 61.88-50.078 74.87-80.73 74.87z" />
<glyph unicode="&#xe9dd;" d="M690.697 232.487c0.604 3.234-0.742 6.524-3.434 8.414l-41.582 29.126c-2.028 1.42-4.59 1.866-6.97 1.236-0.434-0.11-43.918-11.542-107.050-18.552-25.056-2.81-53.12-4.294-81.164-4.294-63.116 0-104.384 7.416-110.394 12.856-0.796 1.528-0.544 2.222-0.402 2.608 1.092 3.036 6.944 6.644 10.716 8.072 4.166 1.542 6.412 6.066 5.116 10.314-1.292 4.254-5.674 6.756-9.998 5.718-41.712-10.066-62.108-24.142-60.624-41.836 2.636-31.372 75.3-47.474 136.731-51.73 8.834-0.604 18.388-0.91 28.39-0.91 0.006 0 0.010 0 0.016 0 102.148 0 233.101 32.050 234.409 32.376 3.198 0.78 5.636 3.362 6.242 6.602z" />
<glyph unicode="&#xe9de;" d="M377.205 165.159c3.15 2.048 4.546 5.942 3.428 9.528-1.114 3.586-4.468 5.942-8.236 5.892-5.59-0.148-54.698-2.364-58.136-33.63-1.040-9.344 1.636-17.882 7.958-25.372 17.632-20.896 65.228-33.316 145.483-37.968 9.494-0.57 19.138-0.856 28.668-0.856 102.030 0 170.747 31.946 173.625 33.306 2.79 1.32 4.63 4.062 4.794 7.142s-1.374 6.002-4.006 7.612l-52.55 32.080c-1.824 1.112-4.006 1.48-6.086 1.054-0.332-0.070-33.698-6.99-84.052-13.826-9.528-1.296-21.46-1.954-35.46-1.954-50.3 0-106.248 8.218-116.978 13.6-0.156 1.004 0.042 2.28 1.55 3.392z" />
<glyph unicode="&#xe9df;" d="M448.818-13.704c233.709 0.198 359.143 41.76 383.307 67.914 8.554 9.252 9.478 18.012 8.752 23.734-1.796 14.080-14.622 22.7-16.076 23.636-3.508 2.256-8.216 1.666-10.952-1.49-2.73-3.156-2.794-7.768-0.054-10.922 1.474-1.896 2.326-5.070-1.984-9.384-9.66-9.022-107.090-36.408-269.313-44.636-22.222-1.154-45.53-1.742-69.272-1.746-145.247 0-251.545 19.896-265.499 31.488 5.378 7.728 42.978 20.074 82.964 27.058 4.506 0.786 7.55 5.032 6.852 9.552-0.698 4.518-4.864 7.628-9.418 7.038-1.128-0.154-4.956-0.382-9.388-0.654-65.976-4.028-142.219-13.006-146.197-47-1.208-10.358 1.87-19.762 9.152-27.946 17.818-20.020 69.032-46.638 307.117-46.638 0.004-0.004 0.004-0.004 0.008-0.004z" />
<glyph unicode="&#xe9e0;" d="M878.029 46.84c-3.304 1.528-7.208 0.756-9.672-1.904-0.342-0.37-35.48-37.112-141.129-58.688-40.446-8.104-116.366-12.214-225.653-12.214-109.49 0-213.677 4.308-214.715 4.352-4.352 0.212-8.074-2.952-8.666-7.236-0.594-4.28 2.166-8.316 6.368-9.316 1.084-0.256 110.27-25.836 259.559-25.836 71.602 0 141.279 5.814 207.097 17.29 122.722 21.514 131.315 82.366 131.621 84.946 0.428 3.606-1.512 7.078-4.81 8.606z" />
<glyph unicode="&#xe9e1;" d="M0 960h1024v-1024h-1024v1024z" />
<glyph unicode="&#xe9e2;" d="M687.868 159.996c20.626-33.678 47.462-58.433 94.923-58.433 39.871 0 65.341 19.927 65.341 47.462 0 32.996-26.169 44.682-70.055 63.878l-24.056 10.321c-69.437 29.582-115.566 66.641-115.566 144.985 0 72.168 54.987 127.106 140.922 127.106 61.18 0 105.163-21.293 136.858-77.044l-74.931-48.112c-16.498 29.582-34.296 41.236-61.928 41.236-28.184 0-46.047-17.879-46.047-41.236 0-28.867 17.879-40.554 59.164-58.433l24.056-10.305c81.757-35.060 127.919-70.802 127.919-151.162 0-86.634-68.055-134.095-159.451-134.095-89.364 0-147.098 42.585-175.348 98.402zM347.949 151.658c15.116-26.819 28.867-49.493 61.928-49.493 31.614 0 51.558 12.369 51.558 60.465v327.192h96.223v-328.493c0-99.637-58.417-144.985-143.685-144.985-77.044 0-121.661 39.871-144.351 87.893z" />
<glyph unicode="&#xe9e3;" horiz-adv-x="1899" d="M26.695 448c0-268.024 413.056-485.305 922.567-485.305v0c509.511 0 922.57 217.281 922.57 485.305v0c0 268.021-413.060 485.305-922.57 485.305v0c-509.511 0-922.567-217.284-922.567-485.305z" />
<glyph unicode="&#xe9e4;" horiz-adv-x="1899" d="M949.262-1.273c489.61 0 886.529 201.148 886.529 449.274 0 248.123-396.919 449.274-886.529 449.274s-886.529-201.151-886.529-449.274c0-248.127 396.919-449.274 886.529-449.274z" />
<glyph unicode="&#xe9e5;" horiz-adv-x="1899" d="M527.935 392.297c40.259 0 70.314 7.424 89.33 22.060 18.813 14.485 31.807 39.581 38.617 74.588 6.35 32.721 3.931 55.568-7.188 67.898-11.369 12.593-35.948 18.98-73.053 18.98h-64.337l-35.667-183.526h52.298zM317.504 166.227c-2.986 0-5.823 1.335-7.721 3.644-1.902 2.306-2.673 5.342-2.102 8.275l94.526 486.346c0.914 4.702 5.035 8.098 9.827 8.098h203.727c64.027 0 111.684-17.385 141.638-51.678 30.115-34.473 39.415-82.66 27.639-143.22-4.792-24.673-13.034-47.587-24.496-68.101-11.475-20.538-26.641-39.541-45.084-56.493-22.076-20.662-47.063-35.644-74.198-44.46-26.705-8.699-61.001-13.11-101.934-13.11h-82.493l-23.558-121.2c-0.914-4.705-5.032-8.102-9.824-8.102h-105.948z" />
<glyph unicode="&#xe9e6;" horiz-adv-x="1899" d="M519.557 565.814h56.085c44.784 0 60.34-9.827 65.625-15.683 8.769-9.724 10.424-30.225 4.788-59.285-6.333-32.534-18.072-55.602-34.897-68.555-17.225-13.261-45.227-19.981-83.224-19.981h-40.155l31.777 163.505zM615.761 682.603h-203.73c-9.583 0-17.822-6.794-19.651-16.2l-94.526-486.346c-1.141-5.869 0.4-11.939 4.201-16.554 3.804-4.615 9.47-7.284 15.45-7.284h105.944c9.587 0 17.825 6.794 19.654 16.2l21.983 113.102h74.241c41.984 0 77.328 4.578 105.040 13.604 28.5 9.26 54.721 24.959 77.928 46.662 19.193 17.659 35.003 37.479 46.983 58.918 11.983 21.446 20.592 45.361 25.587 71.081 12.396 63.747 2.326 114.794-29.928 151.712-31.94 36.565-82.133 55.104-149.176 55.104zM463.491 382.288h64.444c42.715 0 74.531 8.045 95.437 24.139 20.909 16.097 35.010 42.962 42.338 80.608 7.011 36.145 3.817 61.651-9.58 76.51-13.414 14.859-40.239 22.29-80.488 22.29h-72.589l-39.561-203.547zM615.761 662.582c61.288 0 105.998-16.084 134.101-48.254 28.099-32.17 36.562-77.074 25.35-134.725-4.615-23.748-12.42-45.461-23.408-65.132-11.002-19.684-25.367-37.683-43.119-54.003-21.156-19.797-44.657-33.906-70.517-42.308-25.86-8.425-58.798-12.62-98.84-12.62h-90.748l-25.13-129.302h-105.944l94.526 486.343h203.73z" />
<glyph unicode="&#xe9e7;" horiz-adv-x="1899" d="M1027.954 295.529c-2.99 0-5.823 1.335-7.721 3.644-1.905 2.306-2.676 5.339-2.106 8.275l41.814 215.189c3.978 20.465 2.996 35.154-2.76 41.36-3.524 3.794-14.108 10.157-45.404 10.157h-75.753l-52.572-270.524c-0.914-4.705-5.035-8.102-9.827-8.102h-105.11c-2.99 0-5.823 1.335-7.725 3.644-1.902 2.306-2.673 5.342-2.102 8.275l94.526 486.346c0.914 4.702 5.035 8.098 9.827 8.098h105.11c2.99 0 5.823-1.335 7.725-3.64 1.902-2.309 2.673-5.342 2.102-8.279l-22.811-117.383h81.492c62.082 0 104.179-10.945 128.698-33.462 24.993-22.971 32.791-59.699 23.181-109.178l-43.979-226.321c-0.914-4.705-5.032-8.102-9.827-8.102h-106.779z" />
<glyph unicode="&#xe9e8;" horiz-adv-x="1899" d="M968.152 811.905h-105.11c-9.587 0-17.825-6.794-19.654-16.2l-94.526-486.346c-1.141-5.869 0.4-11.939 4.204-16.554s9.47-7.284 15.45-7.284h105.11c9.583 0 17.825 6.794 19.654 16.2l50.997 262.425h67.501c31.243 0 37.8-6.674 38.063-6.961 1.895-2.039 4.388-11.482 0.274-32.638l-41.814-215.189c-1.141-5.869 0.4-11.939 4.204-16.554s9.47-7.284 15.45-7.284h106.779c9.583 0 17.825 6.794 19.654 16.2l43.976 226.321c10.321 53.126 1.492 92.977-26.231 118.457-26.454 24.295-70.768 36.105-135.472 36.105h-69.353l20.498 105.461c1.138 5.869-0.4 11.943-4.204 16.554-3.804 4.615-9.47 7.288-15.45 7.288zM968.152 791.884l-25.13-129.302h93.638c58.918 0 99.558-10.284 121.924-30.826 22.367-20.555 29.067-53.86 20.128-99.898l-43.979-226.317h-106.779l41.814 215.186c4.758 24.479 3.010 41.176-5.252 50.079-8.265 8.903-25.847 13.361-52.739 13.361h-84.008l-54.143-278.625h-105.11l94.526 486.343h105.11z" />
<glyph unicode="&#xe9e9;" horiz-adv-x="1899" d="M1354.853 392.297c40.259 0 70.314 7.424 89.33 22.060 18.813 14.482 31.807 39.578 38.62 74.588 6.35 32.721 3.931 55.568-7.191 67.898-11.369 12.593-35.948 18.98-73.053 18.98h-64.337l-35.667-183.526h52.298zM1144.426 166.227c-2.986 0-5.823 1.335-7.721 3.644-1.902 2.306-2.676 5.342-2.106 8.275l94.526 486.346c0.918 4.702 5.035 8.098 9.83 8.098h203.724c64.030 0 111.684-17.385 141.642-51.678 30.115-34.469 39.411-82.657 27.639-143.22-4.798-24.673-13.037-47.587-24.499-68.101-11.475-20.538-26.641-39.541-45.084-56.493-22.076-20.662-47.063-35.644-74.198-44.46-26.705-8.699-61.001-13.11-101.934-13.11h-82.496l-23.548-121.2c-0.918-4.705-5.035-8.102-9.83-8.102h-105.944z" />
<glyph unicode="&#xe9ea;" horiz-adv-x="1899" d="M1346.475 565.814h56.085c44.784 0 60.34-9.827 65.625-15.683 8.773-9.724 10.428-30.225 4.788-59.282-6.333-32.537-18.076-55.605-34.897-68.559-17.225-13.261-45.227-19.981-83.224-19.981h-40.152l31.773 163.505zM1442.679 682.603h-203.727c-9.583 0-17.822-6.794-19.651-16.2l-94.526-486.346c-1.141-5.869 0.4-11.939 4.201-16.554 3.804-4.615 9.47-7.284 15.45-7.284h105.944c9.583 0 17.825 6.794 19.654 16.2l21.98 113.102h74.241c41.984 0 77.328 4.578 105.040 13.604 28.5 9.26 54.727 24.963 77.935 46.669 19.193 17.655 34.997 37.473 46.976 58.912 11.983 21.446 20.592 45.361 25.587 71.081 12.396 63.75 2.326 114.797-29.928 151.716-31.94 36.562-82.129 55.101-149.176 55.101zM1290.413 382.288h64.441c42.715 0 74.531 8.045 95.437 24.139 20.912 16.097 35.010 42.962 42.338 80.608 7.014 36.145 3.821 61.651-9.58 76.51-13.414 14.859-40.239 22.29-80.488 22.29h-72.589l-39.558-203.547zM1442.679 662.582c61.288 0 105.998-16.084 134.101-48.254s36.562-77.074 25.35-134.725c-4.615-23.748-12.42-45.461-23.408-65.132-11.002-19.684-25.367-37.683-43.119-54.003-21.156-19.797-44.657-33.906-70.517-42.308-25.86-8.425-58.798-12.62-98.84-12.62h-90.748l-25.126-129.302h-105.944l94.526 486.343h203.727z" />
<glyph unicode="&#xe9eb;" d="M1024 448c0-51.952-7.732-102.108-22.13-149.358 0-0.020 0-0.020-0.020-0.042-16.614-54.522-42.046-105.18-74.69-150.298v-0.020c-46.54-64.344-107.688-117.446-178.552-154.436-20.878-10.908-42.59-20.418-65.014-28.38-18.182-6.478-36.844-11.932-55.922-16.342h-0.020c-37.18-8.59-75.862-13.124-115.652-13.124-83.070 0-161.5 19.77-230.86 54.878-64.846 32.81-121.772 79.016-167.1 134.98-41.21 50.824-72.85 109.694-92.244 173.892-14.168 46.916-21.796 96.694-21.796 148.25 0 282.77 229.23 512 512 512s512-229.23 512-512z" />
<glyph unicode="&#xe9ec;" d="M744.24 736.434v-252.574c0-59.454-48.19-107.646-107.646-107.646h-258.738c-74.794 0-135.418-60.646-135.418-135.44v-124.050h-84.596c-15.318 0-30.030 3.030-43.802 9.132-41.21 50.824-72.85 109.694-92.244 173.892-1.526 15.84-2.32 32.748-2.32 50.72 0 156.922 61.962 233.744 138.366 233.744h355.578v36.446h-236.648v115.774c0 58.786 104.656 106.454 233.744 106.454s233.724-47.666 233.724-106.452z" />
<glyph unicode="&#xe9ed;" d="M421.662 726.758c0-23.755-19.257-43.012-43.012-43.012s-43.012 19.257-43.012 43.012c0 23.755 19.257 43.012 43.012 43.012s43.012-19.257 43.012-43.012z" />
<glyph unicode="&#xe9ee;" d="M1005.902 363.948c0-23.572-1.4-45.348-4.034-65.306 0-0.020 0-0.020-0.020-0.042-16.614-54.522-42.046-105.18-74.69-150.298v-0.020c-18.056-12.058-38.264-18.056-59.6-18.056h-355.578v-36.466h236.628v-99.914c-20.878-10.908-42.59-20.418-65.014-28.38-18.182-6.478-36.844-11.932-55.922-16.342h-0.020c-37.18-8.59-75.862-13.124-115.652-13.124-83.070 0-161.5 19.77-230.86 54.878v239.678c0 59.454 48.212 107.666 107.666 107.666h258.738c74.794 0 135.418 60.626 135.418 135.418v124.050h84.594c76.404 0.002 138.346-75.23 138.346-233.742z" />
<glyph unicode="&#xe9ef;" d="M689.758-12.34c0-8.13-2.256-15.736-6.164-22.194-18.182-6.478-36.844-11.932-55.922-16.342h-0.020c-14.168 7.022-23.908 21.65-23.908 38.536 0 23.76 19.248 43.008 43.008 43.008 23.758 0 43.006-19.248 43.006-43.008z" />
<glyph unicode="&#xe9f0;" glyph-name="cv" d="M737.28 726.801c17.762 11.799 28.442 31.703 28.45 53.026v31.113c-0.576 35.2-29.579 63.268-64.779 62.692-34.387-0.563-62.129-28.303-62.692-62.692v-31.113c0.023-21.485 10.882-41.508 28.877-53.248-31.243-9.525-52.627-38.302-52.736-70.963v-72.926c0-9.425 7.642-17.067 17.067-17.067h142.268c9.425 0 17.067 7.642 17.067 17.067v72.926c-0.126 32.956-21.897 61.911-53.521 71.185zM685.534 599.842h-37.001v55.774c0.051 14.564 7.951 27.972 20.668 35.072l16.333-22.579v-68.267zM672.427 778.389c-0.011 0.474-0.011 0.947 0 1.421v31.113c0.393 16.35 13.963 29.284 30.313 28.892 15.797-0.38 28.512-13.094 28.892-28.892v-31.113c0.393-16.35-12.544-29.92-28.892-30.313-16.35-0.393-29.92 12.544-30.313 28.892zM756.668 599.757h-37.001v68.13l17.067 22.391c12.305-7.217 19.885-20.397 19.934-34.662v-55.859zM887.467 960h-750.933c-9.425 0-17.067-7.642-17.067-17.067v-989.867c0-9.425 7.642-17.067 17.067-17.067h750.933c9.425 0 17.067 7.642 17.067 17.067v989.867c0 9.425-7.642 17.067-17.067 17.067zM870.4-29.867h-716.8v955.733h716.8v-955.733zM221.867 874.667h324.267v-34.133h-324.267v34.133zM221.867 789.333h324.267v-34.133h-324.267v34.133zM221.867 686.933h324.267v-34.133h-324.267v34.133zM221.867 601.6h324.267v-34.133h-324.267v34.133zM221.867 482.133h580.267v-34.133h-580.267v34.133zM221.867 396.8h580.267v-34.133h-580.267v34.133zM221.867 311.467h580.267v-34.133h-580.267v34.133zM221.867 226.133h307.2v-34.133h-307.2v34.133zM614.4 123.733h51.2v-34.133h-51.2v34.133zM750.933 123.733h51.2v-34.133h-51.2v34.133zM682.667 123.733h51.2v-34.133h-51.2v34.133zM614.4 55.467h187.733v-34.133h-187.733v34.133z" />
</font>
</defs>
</svg>
